<?xml version="1.0" encoding="UTF-8" standalone="no"?>
<svg
   xmlns:dc="http://purl.org/dc/elements/1.1/"
   xmlns:cc="http://creativecommons.org/ns#"
   xmlns:rdf="http://www.w3.org/1999/02/22-rdf-syntax-ns#"
   xmlns:svg="http://www.w3.org/2000/svg"
   xmlns="http://www.w3.org/2000/svg"
   viewBox="0 0 733.33331 533.33331"
   height="533.33331"
   width="733.33331"
   xml:space="preserve"
   id="svg2"
   version="1.1"><metadata
     id="metadata8"><rdf:RDF><cc:Work
         rdf:about=""><dc:format>image/svg+xml</dc:format><dc:type
           rdf:resource="http://purl.org/dc/dcmitype/StillImage" /></cc:Work></rdf:RDF></metadata><defs
     id="defs6"><clipPath
       id="clipPath18"
       clipPathUnits="userSpaceOnUse"><path
         id="path16"
         d="M 0,400 H 550 V 0 H 0 Z" /></clipPath></defs><g
     transform="matrix(1.3333333,0,0,-1.3333333,0,533.33333)"
     id="g10"><g
       id="g12"><g
         clip-path="url(#clipPath18)"
         id="g14"><g
           transform="translate(390.1504,94.8496)"
           id="g20"><path
             id="path22"
             style="fill:none;stroke:#0066ff;stroke-width:3;stroke-linecap:round;stroke-linejoin:round;stroke-miterlimit:3;stroke-dasharray:none;stroke-opacity:1"
             d="m 0,0 c -28.733,-28.767 -63.45,-43.149 -104.15,-43.149 -40.634,0 -75.334,14.382 -104.1,43.149 -28.734,28.733 -43.101,63.45 -43.101,104.15 0,40.634 14.367,75.334 43.101,104.1 28.766,28.767 63.466,43.15 104.1,43.15 40.7,0 75.417,-14.383 104.15,-43.15 C 28.767,179.484 43.149,144.784 43.149,104.15 43.149,63.45 28.767,28.733 0,0 Z m 29.75,-29.75 c -36.967,-37 -81.601,-55.5 -133.9,-55.5 -52.3,0 -96.951,18.5 -133.951,55.5 -36.966,36.967 -55.449,81.601 -55.449,133.9 0,52.3 18.483,96.951 55.449,133.951 37,36.966 81.651,55.449 133.951,55.449 52.299,0 96.933,-18.483 133.9,-55.449 37,-37 55.5,-81.651 55.5,-133.951 0,-52.299 -18.5,-96.933 -55.5,-133.9 z m -4.051,4.051 C -10.134,-61.566 -53.417,-79.5 -104.15,-79.5 c -50.701,0 -93.984,17.934 -129.85,53.801 -35.833,35.833 -53.75,79.116 -53.75,129.849 0,50.701 17.917,93.984 53.75,129.85 35.866,35.833 79.149,53.75 129.85,53.75 50.733,0 94.016,-17.917 129.849,-53.75 C 61.566,198.134 79.5,154.851 79.5,104.15 79.5,53.417 61.566,10.134 25.699,-25.699 Z" /></g><g
           transform="translate(291.1504,327.8999)"
           id="g24"><path
             id="path26"
             style="fill:none;stroke:#0066ff;stroke-width:1;stroke-linecap:round;stroke-linejoin:round;stroke-miterlimit:3;stroke-dasharray:none;stroke-opacity:1"
             d="m 0,0 c 5.343,3.591 15.824,6.024 35.447,7.3 m -44.05,-277.713 c -14.09,12.638 -24.589,48.434 -26.249,99.763 -2.293,54.554 3.116,97.98 12.227,130.275 C -16.093,-17.227 -8.783,-3.891 0,0 m 0,0 c -5.351,3.6 -21.631,6.902 -41.248,8.169 m 40.947,-8.394 c -12.539,-0.582 -24.055,-2.59 -34.55,-6.025 -30.636,-9.779 -54.952,-27.962 -72.949,-54.55 -8.461,-12.82 -13.928,-26.737 -16.4,-41.75 -7.666,-43.53 2.534,-83.629 30.599,-120.3 16.969,-21.986 51.429,-43.023 84.998,-47.563 0,0 -66.35,29.124 -80.447,104.163 -10.788,78.376 14.712,132.626 76.499,162.75 2.595,1.087 6.762,2.137 12.5,3.15 m 0.226,-0.1 c -1.759,-0.596 -2.318,-0.796 -1.675,-0.6 0.225,0.087 0.841,0.262 1.85,0.525 C 2.587,-1.603 4.454,-3.028 5.949,-4.8 23.887,-22.7 30.104,-71.65 24.6,-151.65 19.222,-220.818 0.432,-261.616 -8.603,-270.413 M 15.75,-2.8 C 10.723,-1.324 6.173,-0.474 2.1,-0.25 1.913,-0.241 1.729,-0.232 1.55,-0.225 M 1.399,-0.15 c 0.017,-0.026 0.034,-0.051 0.05,-0.075 -0.022,-0.001 -0.048,-0.001 -0.074,0 C 1.362,-0.24 1.354,-0.257 1.35,-0.275 1.389,-0.27 1.43,-0.261 1.475,-0.25 m 0,0 c 0.028,0.007 0.053,0.015 0.075,0.025 -0.029,-0.002 -0.063,-0.002 -0.101,0 L 1.475,-0.25 C 1.485,-0.266 1.444,-0.283 1.35,-0.3 v 0.025 M 0.774,-0.15 C 0.634,-0.165 0.476,-0.181 0.3,-0.2 m 0.2,-0.15 c -0.109,0.002 -0.234,0.002 -0.375,0 m 0.375,0 c 0.312,0.012 0.555,0.029 0.725,0.05 0.037,0.005 0.079,0.013 0.125,0.025 -0.22,-0.023 -0.487,-0.04 -0.8,-0.05 L 0.5,-0.35 C 0.44,-0.368 0.382,-0.385 0.324,-0.4 0.467,-0.417 0.592,-0.426 0.699,-0.425 0.867,-0.39 1.042,-0.348 1.225,-0.3 m -1.05,-0.15 c 0.049,0.015 0.099,0.032 0.149,0.05 -0.114,0.011 -0.239,0.028 -0.375,0.05 0.078,-0.035 0.154,-0.068 0.226,-0.1 0.056,-0.027 0.115,-0.051 0.175,-0.075 0.113,0.028 0.229,0.062 0.349,0.1 0.374,-0.025 0.591,0.017 0.651,0.125 -0.038,0.003 -0.079,0.003 -0.125,0 M 0.3,-0.2 C 0.202,-0.13 0.103,-0.063 0,0 c -0.103,-0.063 -0.203,-0.139 -0.301,-0.225 0.193,0.009 0.384,0.017 0.575,0.025 z m 0.8,0.05 C 1.044,-0.168 0.986,-0.185 0.925,-0.2 c 0.147,-0.004 0.298,-0.012 0.45,-0.025 0.005,0.027 0.013,0.052 0.024,0.075 l 0.05,0.025 M 0.774,-0.2 C 0.493,-0.252 0.218,-0.302 -0.051,-0.35 h 0.176 c 0.151,0.007 0.293,0.016 0.425,0.025 0.122,0.037 0.247,0.078 0.375,0.125 -0.046,-0.001 -0.096,-0.001 -0.151,0 z M 1.1,-0.15 H 1.024 C 0.812,-0.162 0.57,-0.178 0.3,-0.2 c 0.155,-0.001 0.313,-0.001 0.474,0 0.106,0.014 0.213,0.031 0.326,0.05 l 0.349,0.025 c -0.02,0.007 -0.245,-0.002 -0.675,-0.025 0.079,-0.002 0.163,-0.002 0.25,0 M 109.963,-81.029 C 94.685,-42.974 64.238,-16.745 15.75,-2.8 34.604,-9.046 49.821,-21.58 61.399,-40.4 87.558,-87.551 92.69,-135.184 76.8,-183.3 c -15.983,-47.707 -44.92,-79.366 -85.403,-87.113 46.278,6.192 82.064,29.973 103.752,61.663 27.045,46.047 32.297,89.064 14.119,129.417" /></g><g
           transform="translate(282.875,209.7998)"
           id="g28"><path
             id="path30"
             style="fill:none;stroke:#0066ff;stroke-width:1;stroke-linecap:round;stroke-linejoin:round;stroke-miterlimit:3;stroke-dasharray:none;stroke-opacity:1"
             d="m 0,0 c -7.352,0.101 -14.477,0.393 -21.375,0.875 -24.771,1.762 -46.622,6.021 -65.55,12.775 -1.085,0.389 -2.144,0.78 -3.175,1.175 -7.01,2.664 -12.968,5.481 -17.875,8.45 -11.5,6.963 -18.251,15.771 -18.251,24.426 m 255.722,-123.07 c -0.634,-0.5 0.566,0.35 0,0 -5.491,-9.582 -23.138,-28.355 -40.421,-37.981 -23.7,-13.2 -52.334,-19.799 -85.9,-19.799 -33.533,0 -62.133,6.599 -85.8,19.799 -18.974,10.538 -33.124,24.421 -42.45,41.65 11.985,-8.094 23.768,-14.21 35.35,-18.35 26.2,-9.366 57.867,-14.05 95,-14.05 37.133,0 68.817,4.684 95.05,14.05 8.662,3.104 20.818,8.835 29.171,14.681 m 14.829,51.97 c -2.11,-2.629 -4.818,-5.171 -8.125,-7.625 -2.367,-1.759 -5.042,-3.476 -8.025,-5.151 -3.296,-1.838 -6.971,-3.621 -11.025,-5.349 -2.969,-1.272 -6.144,-2.513 -9.525,-3.726 -4.133,-1.47 -8.391,-2.837 -12.775,-4.1 C 69.319,-56.649 39.528,-60.3 5.475,-60.3 c -34.125,0 -63.967,3.675 -89.525,11.026 -4.294,1.238 -8.469,2.58 -12.525,4.024 -4.764,1.704 -9.122,3.463 -13.075,5.275 -2.785,1.284 -5.368,2.592 -7.75,3.925 -3.861,2.169 -7.202,4.411 -10.025,6.725 -4.379,3.605 -9.066,10.031 -10.936,14.009 M 135.175,40.6 C 133.087,34.349 127.695,28.583 119,23.3 114.086,20.321 108.119,17.496 101.1,14.825 100.067,14.43 99.009,14.039 97.925,13.65 78.259,6.641 55.458,2.324 29.525,0.7 22.842,0.292 15.95,0.059 8.85,0 m 67.866,110.47 c 4.239,-3.597 6.359,-7.492 6.359,-11.12 0,-3.767 -2.266,-7.217 -6.8,-10.35 -3.9,-2.733 -9.45,-5.233 -16.65,-7.5 -15.6,-4.9 -34.45,-7.35 -56.55,-7.35 -22.067,0 -40.883,2.45 -56.45,7.35 -8,2.567 -13.95,5.367 -17.85,8.4 -3.733,2.867 -5.6,6.017 -5.6,9.45 0,4.354 3.444,9.093 9.845,13.239" /></g><g
           transform="translate(115.1001,211.6221)"
           id="g32"><path
             id="path34"
             style="fill:#0066ff;fill-opacity:1;fill-rule:nonzero;stroke:none"
             d="M 0,0 7.387,-0.689 7.809,3.828 C 7.918,5 7.831,5.798 7.545,6.222 7.172,6.787 6.456,7.15 5.396,7.31 L 5.448,7.871 11.953,7.264 11.9,6.703 C 10.978,6.646 10.381,6.559 10.11,6.442 9.772,6.29 9.492,6.015 9.27,5.618 9.047,5.221 8.896,4.593 8.815,3.733 l -0.422,-4.517 6.16,-0.575 c 0.828,-0.077 1.334,-0.083 1.522,-0.02 0.186,0.065 0.342,0.192 0.465,0.385 0.126,0.192 0.214,0.571 0.267,1.137 l 0.326,3.487 c 0.108,1.162 0.113,2.013 0.015,2.552 -0.098,0.539 -0.34,1.072 -0.727,1.597 -0.51,0.679 -1.309,1.402 -2.397,2.166 l 0.057,0.606 4.52,-2.21 -1.479,-15.842 -0.51,0.047 0.068,0.728 c 0.046,0.485 -0.017,0.955 -0.188,1.41 -0.117,0.336 -0.318,0.577 -0.601,0.72 -0.283,0.144 -0.879,0.259 -1.788,0.343 L 1.961,-3.12 c -1.185,0.112 -1.928,0.048 -2.227,-0.189 -0.401,-0.329 -0.643,-0.919 -0.722,-1.767 l -0.068,-0.728 -0.51,0.048 1.48,15.841 L 4.028,9.93 3.973,9.339 C 2.97,9.219 2.273,9.046 1.88,8.824 1.489,8.6 1.173,8.245 0.933,7.757 0.757,7.366 0.622,6.66 0.527,5.639 Z" /></g><g
           transform="translate(133.9336,227.3921)"
           id="g36"><path
             id="path38"
             style="fill:#0066ff;fill-opacity:1;fill-rule:nonzero;stroke:none"
             d="M 0,0 C 0.245,0.468 0.437,1.045 0.576,1.732 0.815,2.916 0.759,3.844 0.405,4.516 0.051,5.188 -0.496,5.6 -1.238,5.75 -2.07,5.918 -2.783,5.674 -3.376,5.018 -3.971,4.361 -4.402,3.372 -4.67,2.048 -4.736,1.72 -4.798,1.365 -4.857,0.983 Z m -5.78,1.169 c 0.098,0.437 0.156,0.7 0.174,0.789 0.276,1.363 0.237,2.396 -0.115,3.099 C -6.073,5.76 -6.588,6.18 -7.266,6.318 -8.053,6.477 -8.685,6.284 -9.162,5.738 -9.639,5.192 -10.016,4.244 -10.29,2.891 l -0.157,-0.776 z m 1.203,4.34 c 0.976,2.402 2.292,3.435 3.946,3.1 C 0.5,8.38 1.241,7.689 1.591,6.537 1.941,5.383 1.928,3.876 1.552,2.016 l -1.366,-6.745 -0.502,0.102 c 0.18,0.885 0.142,1.476 -0.115,1.771 -0.255,0.294 -0.885,0.543 -1.889,0.747 l -6.593,1.335 c -0.977,0.198 -1.561,0.261 -1.755,0.191 -0.192,-0.069 -0.381,-0.202 -0.567,-0.397 -0.186,-0.196 -0.349,-0.642 -0.49,-1.338 l -0.516,0.105 1.276,6.297 c 0.245,1.213 0.529,2.178 0.854,2.895 0.323,0.715 0.787,1.264 1.391,1.644 0.605,0.38 1.268,0.497 1.991,0.351 1.412,-0.286 2.129,-1.441 2.152,-3.465" /></g><g
           transform="translate(129.3564,243.2622)"
           id="g40"><path
             id="path42"
             style="fill:#0066ff;fill-opacity:1;fill-rule:nonzero;stroke:none"
             d="M 0,0 4.529,-1.379 C 5.508,-1.677 6.166,-1.83 6.502,-1.836 7.055,-1.857 7.606,-1.661 8.155,-1.25 8.706,-0.839 9.103,-0.231 9.348,0.575 9.643,1.546 9.539,2.437 9.034,3.249 8.373,4.31 7.227,5.089 5.593,5.586 3.739,6.151 2.179,6.138 0.908,5.549 0.031,5.136 -0.539,4.503 -0.799,3.649 -0.941,3.183 -0.976,2.69 -0.903,2.169 -0.85,1.771 -0.549,1.047 0,0 m -3.524,-4.02 -0.259,4.567 0.169,0.554 2.833,-0.863 C -1.64,1.253 -2.177,2.172 -2.394,2.997 -2.61,3.821 -2.602,4.618 -2.368,5.385 -1.96,6.724 -1.144,7.696 0.082,8.299 1.581,9.042 3.266,9.128 5.138,8.558 7.229,7.921 8.759,6.734 9.726,4.996 10.515,3.567 10.658,2.028 10.157,0.377 9.937,-0.341 9.655,-0.935 9.31,-1.403 9.059,-1.751 8.661,-2.107 8.116,-2.471 l 3.696,-1.125 c 0.829,-0.253 1.374,-0.358 1.631,-0.315 0.261,0.043 0.498,0.183 0.715,0.42 0.217,0.236 0.436,0.718 0.657,1.447 l 0.49,-0.15 -2.129,-6.991 -0.489,0.149 0.11,0.365 c 0.171,0.531 0.218,1.015 0.14,1.453 -0.041,0.215 -0.155,0.405 -0.34,0.573 -0.185,0.168 -0.719,0.387 -1.602,0.654 l -11.467,3.493 c -0.785,0.239 -1.295,0.352 -1.531,0.339 -0.237,-0.013 -0.432,-0.089 -0.59,-0.226 -0.158,-0.138 -0.281,-0.353 -0.37,-0.644 -0.07,-0.233 -0.099,-0.548 -0.085,-0.945 z" /></g><g
           transform="translate(142.0352,259.6782)"
           id="g44"><path
             id="path46"
             style="fill:#0066ff;fill-opacity:1;fill-rule:nonzero;stroke:none"
             d="m 0,0 -4.471,1.83 c -0.068,-1.628 -0.08,-2.693 -0.036,-3.193 0.072,-0.896 0.248,-1.588 0.527,-2.075 0.278,-0.487 0.662,-0.83 1.148,-1.03 0.616,-0.252 1.208,-0.258 1.779,-0.021 0.571,0.238 0.964,0.62 1.18,1.146 C 0.419,-2.629 0.377,-1.515 0,0 M 0.832,-0.341 C 1.221,-2.047 1.418,-3.098 1.425,-3.496 1.431,-4.09 1.316,-4.674 1.083,-5.248 0.717,-6.14 0.138,-6.761 -0.654,-7.111 c -0.791,-0.351 -1.639,-0.341 -2.544,0.029 -0.573,0.235 -1.01,0.579 -1.314,1.032 -0.423,0.623 -0.695,1.515 -0.817,2.678 -0.122,1.164 -0.096,3.005 0.077,5.522 l -0.46,0.188 c -1.171,0.48 -2.058,0.604 -2.66,0.373 -0.604,-0.23 -1.064,-0.735 -1.383,-1.514 -0.242,-0.592 -0.29,-1.121 -0.141,-1.587 0.144,-0.477 0.404,-0.791 0.779,-0.945 l 0.755,-0.276 c 0.392,-0.161 0.651,-0.395 0.774,-0.703 0.122,-0.309 0.11,-0.641 -0.035,-0.998 -0.142,-0.348 -0.369,-0.586 -0.682,-0.716 -0.313,-0.13 -0.661,-0.116 -1.045,0.041 -0.735,0.301 -1.24,0.99 -1.516,2.069 -0.277,1.078 -0.109,2.364 0.502,3.858 0.469,1.145 1.029,2.013 1.679,2.602 0.492,0.446 1.074,0.685 1.745,0.717 0.437,0.019 1.222,-0.204 2.358,-0.669 L -0.599,2.959 C 0.521,2.501 1.215,2.244 1.487,2.188 1.758,2.131 1.958,2.141 2.087,2.213 2.217,2.286 2.311,2.393 2.369,2.534 2.43,2.685 2.454,2.829 2.439,2.966 2.41,3.208 2.254,3.716 1.973,4.49 L 2.69,4.196 C 3.54,2.619 3.769,1.352 3.377,0.394 3.189,-0.067 2.893,-0.373 2.491,-0.527 2.089,-0.68 1.537,-0.619 0.832,-0.341" /></g><g
           transform="translate(139.1338,267.9727)"
           id="g48"><path
             id="path50"
             style="fill:#0066ff;fill-opacity:1;fill-rule:nonzero;stroke:none"
             d="m 0,0 -3.539,1.803 0.289,0.57 c 0.215,0.095 0.372,0.243 0.475,0.441 0.078,0.154 0.182,0.523 0.313,1.105 C -2.246,4.891 -2,5.648 -1.725,6.192 -1.117,7.386 -0.357,8.255 0.552,8.8 1.461,9.345 2.331,9.406 3.161,8.984 4.436,8.334 4.819,6.801 4.313,4.382 6.043,6.622 7.731,7.323 9.375,6.485 10.24,6.046 10.798,5.26 11.056,4.126 11.312,2.993 11.053,1.667 10.28,0.147 9.773,-0.848 9.165,-1.64 8.456,-2.229 7.747,-2.82 6.78,-3.361 5.555,-3.854 l -0.141,0.517 c 1.8,0.951 3.039,2.092 3.716,3.421 0.386,0.76 0.47,1.503 0.25,2.23 C 9.16,3.042 8.676,3.596 7.927,3.977 6.291,4.81 4.832,4.089 3.55,1.815 L 2.834,2.179 C 3.392,3.273 3.531,4.202 3.251,4.965 2.972,5.729 2.527,6.265 1.919,6.575 1.385,6.847 0.81,6.875 0.191,6.66 -0.425,6.444 -0.912,5.988 -1.266,5.292 -2.085,3.682 -1.581,2.081 0.249,0.488 Z" /></g><g
           transform="translate(151.1416,280.1299)"
           id="g52"><path
             id="path54"
             style="fill:#0066ff;fill-opacity:1;fill-rule:nonzero;stroke:none"
             d="M 0,0 -2.158,8.478 C -2.771,8.839 -3.267,8.977 -3.646,8.892 -4.026,8.808 -4.399,8.484 -4.763,7.922 l -0.445,0.28 3.451,5.491 0.446,-0.28 c -0.362,-0.576 -0.552,-0.996 -0.571,-1.26 -0.02,-0.264 0.014,-0.501 0.1,-0.711 0.086,-0.21 0.559,-0.585 1.418,-1.125 L 5.331,6.737 C 6.159,6.216 6.683,5.952 6.903,5.947 7.122,5.94 7.356,6 7.604,6.126 7.852,6.252 8.166,6.615 8.543,7.217 L 8.976,6.945 5.387,1.234 4.954,1.507 C 5.402,2.22 5.582,2.772 5.496,3.163 5.408,3.553 4.909,4.036 3.994,4.61 L -1.057,7.785 1.113,-0.7 c 0.675,-0.401 1.197,-0.585 1.566,-0.553 0.368,0.031 0.754,0.358 1.156,0.982 L 4.268,-0.544 0.841,-5.996 0.408,-5.724 c 0.48,0.765 0.661,1.334 0.542,1.708 -0.119,0.375 -0.62,0.84 -1.502,1.395 l -5.695,3.58 C -7.082,1.485 -7.606,1.748 -7.819,1.75 -8.031,1.751 -8.258,1.69 -8.504,1.569 -8.75,1.447 -9.063,1.082 -9.448,0.472 l -0.444,0.28 3.589,5.71 0.446,-0.28 C -6.22,5.606 -6.41,5.187 -6.428,4.922 c -0.02,-0.264 0.014,-0.501 0.1,-0.71 0.086,-0.211 0.559,-0.586 1.418,-1.126 z" /></g><g
           transform="translate(160.4146,293.8613)"
           id="g56"><path
             id="path58"
             style="fill:#0066ff;fill-opacity:1;fill-rule:nonzero;stroke:none"
             d="M 0,0 -1.272,8.655 C -1.845,9.078 -2.324,9.267 -2.711,9.222 -3.098,9.177 -3.501,8.893 -3.922,8.371 l -0.414,0.325 4,5.106 0.414,-0.325 c -0.42,-0.535 -0.653,-0.933 -0.699,-1.194 -0.046,-0.26 -0.036,-0.499 0.028,-0.718 0.064,-0.217 0.495,-0.638 1.294,-1.264 L 5.997,6.152 C 6.766,5.55 7.261,5.233 7.478,5.205 7.696,5.176 7.935,5.211 8.195,5.311 8.454,5.41 8.803,5.74 9.242,6.299 L 9.644,5.984 5.485,0.674 5.082,0.99 C 5.601,1.653 5.838,2.183 5.792,2.58 5.746,2.978 5.297,3.51 4.448,4.175 l -4.697,3.679 1.285,-8.665 c 0.629,-0.467 1.129,-0.704 1.499,-0.71 0.371,-0.007 0.788,0.279 1.252,0.857 L 4.189,-0.98 0.218,-6.05 -0.185,-5.734 c 0.557,0.711 0.796,1.258 0.716,1.644 -0.08,0.384 -0.53,0.898 -1.35,1.541 L -6.115,1.599 C -6.893,2.208 -7.386,2.523 -7.596,2.546 -7.808,2.57 -8.041,2.533 -8.297,2.438 -8.554,2.342 -8.905,2.011 -9.349,1.443 l -0.414,0.325 4.16,5.31 0.415,-0.325 C -5.608,6.218 -5.842,5.82 -5.887,5.56 -5.933,5.298 -5.924,5.059 -5.86,4.842 -5.796,4.624 -5.365,4.203 -4.566,3.577 Z m -12.127,6.985 c -0.255,0.2 -0.399,0.439 -0.434,0.717 -0.033,0.278 0.043,0.537 0.231,0.777 0.413,0.527 1.23,0.641 2.449,0.344 0.691,-0.167 1.216,-0.15 1.578,0.05 0.363,0.2 0.656,0.444 0.881,0.731 0.394,0.504 0.593,0.96 0.597,1.37 0.005,0.409 -0.16,0.925 -0.492,1.547 -0.494,0.927 -0.55,1.634 -0.167,2.122 0.187,0.24 0.426,0.382 0.713,0.428 0.288,0.045 0.548,-0.023 0.78,-0.205 0.559,-0.438 0.763,-1.249 0.61,-2.431 C -5.534,11.252 -6.004,10.157 -6.792,9.15 -7.826,7.832 -8.815,7.018 -9.76,6.708 c -0.948,-0.31 -1.736,-0.217 -2.367,0.277" /></g><g
           transform="translate(175.5952,312.625)"
           id="g60"><path
             id="path62"
             style="fill:#0066ff;fill-opacity:1;fill-rule:nonzero;stroke:none"
             d="m 0,0 c 0.951,-1.423 1.375,-2.841 1.272,-4.257 -0.104,-1.414 -0.613,-2.602 -1.53,-3.566 -1.092,-1.147 -2.48,-1.731 -4.167,-1.751 -1.688,-0.021 -3.277,0.678 -4.769,2.097 -1.444,1.373 -2.168,2.962 -2.172,4.765 -0.004,1.804 0.624,3.368 1.884,4.691 0.944,0.994 1.959,1.583 3.046,1.768 C -5.35,3.933 -4.548,3.78 -4.034,3.29 -3.78,3.049 -3.66,2.763 -3.674,2.434 -3.688,2.103 -3.85,1.777 -4.157,1.454 -4.57,1.02 -5.008,0.813 -5.472,0.834 -5.731,0.842 -6.078,1.014 -6.511,1.349 -6.944,1.684 -7.386,1.821 -7.839,1.761 -8.284,1.694 -8.723,1.433 -9.157,0.977 c -0.699,-0.736 -1.014,-1.563 -0.947,-2.483 0.089,-1.219 0.671,-2.34 1.748,-3.363 1.097,-1.044 2.346,-1.668 3.748,-1.874 1.402,-0.206 2.583,0.194 3.541,1.202 0.685,0.721 1.076,1.581 1.175,2.581 0.076,0.697 -0.107,1.622 -0.553,2.774 z" /></g><g
           transform="translate(190.7168,319.6216)"
           id="g64"><path
             id="path66"
             style="fill:#0066ff;fill-opacity:1;fill-rule:nonzero;stroke:none"
             d="m 0,0 -3.094,-2.707 c -2.074,0.428 -4.084,0.968 -6.03,1.62 -0.451,0.145 -0.816,0.227 -1.096,0.246 -0.28,0.019 -0.549,-0.085 -0.809,-0.313 -0.091,-0.079 -0.23,-0.214 -0.416,-0.401 l 2.233,-2.552 c 0.601,-0.687 1.029,-1.089 1.284,-1.203 0.256,-0.114 0.533,-0.111 0.836,0.005 0.302,0.117 0.725,0.413 1.266,0.888 l 0.337,-0.385 -5.246,-4.593 -0.337,0.385 c 0.678,0.595 1.015,1.089 1.009,1.482 -0.006,0.393 -0.353,0.982 -1.04,1.766 l -4.429,5.062 c -0.651,0.744 -1.077,1.146 -1.28,1.208 -0.203,0.062 -0.438,0.069 -0.709,0.024 -0.27,-0.047 -0.676,-0.307 -1.218,-0.782 l -0.345,0.396 5.246,4.592 0.347,-0.395 c -0.634,-0.555 -0.99,-0.939 -1.066,-1.153 -0.076,-0.213 -0.122,-0.435 -0.138,-0.664 -0.015,-0.228 0.336,-0.752 1.053,-1.571 l 1.64,-1.875 c 0.188,0.14 0.312,0.237 0.375,0.29 0.464,0.408 0.797,0.911 0.996,1.507 0.199,0.597 0.119,1.425 -0.242,2.484 -0.346,0.997 -0.534,1.709 -0.564,2.136 -0.03,0.427 0.058,0.875 0.263,1.342 0.204,0.467 0.497,0.869 0.879,1.203 0.413,0.36 0.82,0.557 1.223,0.591 0.403,0.034 0.731,-0.096 0.986,-0.387 C -7.874,8.002 -7.78,7.719 -7.807,7.395 -7.834,7.071 -8.004,6.772 -8.316,6.498 -8.485,6.352 -8.731,6.209 -9.056,6.072 -9.468,5.895 -9.758,5.733 -9.927,5.587 c -0.35,-0.308 -0.401,-0.837 -0.15,-1.586 0.293,-0.859 0.459,-1.434 0.498,-1.724 0.039,-0.292 0.02,-0.74 -0.056,-1.347 0.291,0.145 0.689,0.211 1.192,0.198 0.504,-0.013 1.663,-0.293 3.476,-0.839 1.448,-0.437 2.436,-0.652 2.962,-0.645 0.527,0.006 1.083,0.254 1.667,0.742 z" /></g><g
           transform="translate(195.7686,326.6152)"
           id="g68"><path
             id="path70"
             style="fill:#0066ff;fill-opacity:1;fill-rule:nonzero;stroke:none"
             d="M 0,0 -2.845,3.903 C -3.759,2.553 -4.326,1.653 -4.551,1.204 -4.96,0.403 -5.173,-0.278 -5.191,-0.839 -5.21,-1.4 -5.063,-1.893 -4.753,-2.318 c 0.391,-0.537 0.892,-0.854 1.503,-0.951 0.61,-0.097 1.146,0.022 1.604,0.357 C -1.021,-2.458 -0.474,-1.487 0,0 M 0.529,-0.727 C -0.034,-2.383 -0.417,-3.382 -0.62,-3.724 -0.927,-4.233 -1.331,-4.67 -1.831,-5.035 -2.61,-5.603 -3.429,-5.828 -4.287,-5.711 c -0.858,0.116 -1.574,0.57 -2.15,1.36 -0.364,0.5 -0.557,1.022 -0.578,1.567 -0.033,0.752 0.204,1.656 0.71,2.71 0.507,1.054 1.493,2.607 2.961,4.66 L -3.636,4.988 C -4.381,6.01 -5.071,6.581 -5.705,6.701 -6.339,6.821 -6.996,6.633 -7.677,6.137 -8.194,5.761 -8.511,5.334 -8.63,4.859 -8.756,4.379 -8.7,3.975 -8.461,3.646 L -7.963,3.015 C -7.714,2.673 -7.618,2.337 -7.675,2.011 -7.73,1.684 -7.916,1.407 -8.228,1.18 -8.531,0.958 -8.849,0.874 -9.184,0.928 c -0.333,0.053 -0.622,0.247 -0.867,0.583 -0.468,0.641 -0.536,1.494 -0.205,2.556 0.329,1.063 1.147,2.07 2.451,3.021 1.001,0.729 1.932,1.175 2.795,1.336 0.652,0.121 1.274,0.019 1.862,-0.305 0.381,-0.214 0.933,-0.816 1.656,-1.807 L 1.044,2.833 C 1.756,1.856 2.212,1.273 2.414,1.083 2.615,0.893 2.79,0.794 2.939,0.789 3.087,0.783 3.223,0.825 3.346,0.915 3.478,1.011 3.573,1.121 3.634,1.245 3.735,1.467 3.869,1.981 4.035,2.788 L 4.491,2.161 C 4.389,0.373 3.918,-0.826 3.082,-1.436 2.68,-1.729 2.268,-1.835 1.845,-1.756 1.422,-1.675 0.984,-1.332 0.529,-0.727" /></g><g
           transform="translate(202.7646,341.7178)"
           id="g72"><path
             id="path74"
             style="fill:#0066ff;fill-opacity:1;fill-rule:nonzero;stroke:none"
             d="m 0,0 c -0.391,-0.117 -0.74,-0.267 -1.044,-0.45 -0.878,-0.528 -1.417,-1.12 -1.615,-1.777 -0.197,-0.657 -0.131,-1.258 0.197,-1.804 0.418,-0.696 1.073,-1.088 1.967,-1.175 0.893,-0.088 1.809,0.15 2.749,0.715 0.096,0.057 0.2,0.131 0.312,0.22 z M 3.426,3.286 3.696,2.834 C 3.158,2.51 2.8,2.203 2.624,1.915 2.448,1.626 2.383,1.355 2.428,1.103 2.473,0.851 2.713,0.364 3.145,-0.355 l 3.463,-5.767 c 0.414,-0.688 0.721,-1.12 0.921,-1.296 0.2,-0.176 0.475,-0.255 0.826,-0.237 0.352,0.016 0.797,0.187 1.337,0.511 l 0.263,-0.439 -5.782,-3.473 -0.263,0.439 c 0.721,0.433 1.132,0.845 1.23,1.232 0.099,0.387 -0.129,1.044 -0.685,1.969 L 3.036,-5.054 2.508,-5.387 C 2.43,-5.435 2.289,-5.515 2.084,-5.627 l -0.86,-7.202 -2.976,-1.787 -0.263,0.439 c 0.434,0.261 0.704,0.496 0.811,0.705 0.105,0.209 0.209,0.749 0.315,1.618 l 0.64,5.262 c -2.381,-0.57 -3.964,-0.201 -4.748,1.103 -0.441,0.736 -0.466,1.59 -0.074,2.563 0.392,0.973 1.454,1.98 3.186,3.02 z" /></g><g
           transform="translate(229.6655,349.7881)"
           id="g76"><path
             id="path78"
             style="fill:#0066ff;fill-opacity:1;fill-rule:nonzero;stroke:none"
             d="m 0,0 -6.043,5.769 -0.556,-8.375 z m 0.773,-0.796 -7.435,-2.936 -0.215,-3.269 c -0.053,-0.806 -0.014,-1.375 0.119,-1.71 0.105,-0.266 0.337,-0.445 0.695,-0.536 0.357,-0.092 1.011,0.014 1.961,0.32 l 0.187,-0.476 -6.046,-2.389 -0.188,0.477 c 0.751,0.445 1.204,0.818 1.359,1.117 0.319,0.602 0.521,1.65 0.609,3.142 L -7.1,9.979 -6.604,10.175 5.814,-1.708 C 6.813,-2.662 7.601,-3.227 8.177,-3.4 8.753,-3.574 9.441,-3.529 10.242,-3.262 L 10.43,-3.739 2.854,-6.73 2.667,-6.254 c 0.75,0.337 1.221,0.656 1.413,0.96 0.191,0.304 0.23,0.597 0.118,0.88 -0.149,0.378 -0.573,0.899 -1.274,1.566 z" /></g><g
           transform="translate(250.3594,353.5771)"
           id="g80"><path
             id="path82"
             style="fill:#0066ff;fill-opacity:1;fill-rule:nonzero;stroke:none"
             d="m 0,0 c 0.079,-1.71 -0.291,-3.144 -1.111,-4.301 -0.82,-1.157 -1.87,-1.912 -3.153,-2.263 -1.527,-0.418 -3.018,-0.2 -4.473,0.655 -1.455,0.854 -2.454,2.274 -2.998,4.259 -0.527,1.922 -0.325,3.656 0.604,5.202 0.929,1.546 2.274,2.56 4.036,3.043 C -5.774,6.958 -4.6,6.936 -3.574,6.534 -2.547,6.13 -1.94,5.587 -1.753,4.901 -1.66,4.562 -1.706,4.256 -1.887,3.981 -2.07,3.707 -2.377,3.51 -2.808,3.392 -3.386,3.234 -3.867,3.284 -4.253,3.542 -4.472,3.683 -4.679,4.009 -4.876,4.52 -5.075,5.029 -5.382,5.375 -5.8,5.558 -6.216,5.73 -6.727,5.734 -7.334,5.568 -8.313,5.3 -9.011,4.755 -9.428,3.933 -9.982,2.843 -10.063,1.582 -9.67,0.149 c 0.4,-1.46 1.146,-2.639 2.241,-3.541 1.094,-0.901 2.311,-1.168 3.652,-0.8 0.959,0.262 1.739,0.796 2.34,1.602 0.425,0.557 0.746,1.444 0.96,2.66 z" /></g><g
           transform="translate(263.9668,356.1562)"
           id="g84"><path
             id="path86"
             style="fill:#0066ff;fill-opacity:1;fill-rule:nonzero;stroke:none"
             d="m 0,0 c -0.069,-1.71 -0.562,-3.107 -1.478,-4.189 -0.917,-1.082 -2.029,-1.743 -3.337,-1.982 -1.558,-0.286 -3.024,0.061 -4.4,1.038 -1.376,0.978 -2.248,2.478 -2.619,4.503 -0.358,1.96 -0.008,3.67 1.05,5.13 1.059,1.46 2.488,2.354 4.285,2.684 1.348,0.246 2.516,0.124 3.503,-0.366 0.987,-0.49 1.545,-1.085 1.673,-1.784 C -1.261,4.689 -1.332,4.388 -1.537,4.13 -1.743,3.872 -2.065,3.703 -2.505,3.623 -3.094,3.515 -3.569,3.606 -3.933,3.896 -4.138,4.056 -4.315,4.398 -4.468,4.923 -4.621,5.449 -4.898,5.82 -5.299,6.038 -5.699,6.247 -6.207,6.294 -6.826,6.181 -7.824,5.998 -8.567,5.515 -9.054,4.732 -9.7,3.695 -9.889,2.445 -9.621,0.984 c 0.272,-1.489 0.914,-2.729 1.927,-3.721 1.011,-0.992 2.202,-1.364 3.569,-1.113 0.979,0.179 1.801,0.644 2.469,1.394 0.472,0.518 0.868,1.373 1.186,2.567 z" /></g><g
           transform="translate(271.6182,364.3389)"
           id="g88"><path
             id="path90"
             style="fill:#0066ff;fill-opacity:1;fill-rule:nonzero;stroke:none"
             d="m 0,0 c -0.535,-0.048 -1.061,-0.24 -1.576,-0.578 -0.515,-0.338 -0.907,-0.885 -1.175,-1.641 -0.27,-0.755 -0.353,-1.704 -0.252,-2.843 0.164,-1.838 0.708,-3.388 1.63,-4.649 0.923,-1.261 2.041,-1.832 3.355,-1.715 0.981,0.087 1.758,0.527 2.329,1.319 0.571,0.793 0.777,2.085 0.617,3.877 C 4.729,-3.988 4.039,-2.271 2.864,-1.079 2.066,-0.26 1.113,0.1 0,0 M 0.391,0.938 C 2.494,1.125 4.246,0.55 5.649,-0.788 6.843,-1.933 7.511,-3.309 7.654,-4.917 7.755,-6.048 7.559,-7.219 7.065,-8.43 c -0.493,-1.211 -1.236,-2.157 -2.23,-2.84 -0.994,-0.681 -2.133,-1.079 -3.417,-1.193 -2.094,-0.186 -3.823,0.423 -5.192,1.83 -1.156,1.184 -1.804,2.571 -1.946,4.162 -0.103,1.158 0.11,2.337 0.64,3.537 0.53,1.201 1.286,2.121 2.268,2.76 0.982,0.639 2.049,1.009 3.203,1.112" /></g><g
           transform="translate(296.4668,353.2964)"
           id="g92"><path
             id="path94"
             style="fill:#0066ff;fill-opacity:1;fill-rule:nonzero;stroke:none"
             d="m 0,0 -0.049,-4.028 -0.562,0.007 c -0.018,1.08 -0.396,1.941 -1.134,2.582 -0.738,0.642 -2.087,0.974 -4.046,0.998 l -9.5,0.116 0.007,0.512 c 0.903,-0.011 1.483,0.131 1.741,0.429 0.257,0.296 0.393,0.966 0.405,2.009 l 0.082,6.726 c 0.012,0.987 -0.037,1.572 -0.145,1.753 -0.111,0.181 -0.281,0.344 -0.513,0.49 -0.232,0.146 -0.708,0.224 -1.428,0.232 l 0.007,0.526 6.744,-0.082 -0.007,-0.526 c -0.679,0.008 -1.137,-0.048 -1.373,-0.171 -0.235,-0.121 -0.418,-0.274 -0.552,-0.456 -0.135,-0.183 -0.209,-0.782 -0.221,-1.797 l -0.088,-7.155 c -0.009,-0.803 0.064,-1.279 0.219,-1.429 0.155,-0.15 0.659,-0.229 1.513,-0.239 l 2.465,-0.031 c 0.944,-0.011 1.483,0.06 1.618,0.215 0.133,0.156 0.205,0.662 0.216,1.521 l 0.086,7.045 c 0.011,0.876 -0.034,1.441 -0.131,1.696 -0.099,0.255 -0.294,0.447 -0.587,0.576 -0.294,0.127 -0.749,0.195 -1.369,0.203 l 0.006,0.526 6.745,-0.082 -0.006,-0.527 C -0.538,11.648 -0.994,11.591 -1.229,11.469 -1.465,11.348 -1.648,11.195 -1.783,11.012 -1.917,10.829 -1.99,10.23 -2.004,9.216 L -2.083,2.697 C -2.098,1.506 -1.99,0.771 -1.76,0.492 -1.529,0.212 -0.943,0.048 0,0" /></g><g
           transform="translate(302.416,356.0615)"
           id="g96"><path
             id="path98"
             style="fill:#0066ff;fill-opacity:1;fill-rule:nonzero;stroke:none"
             d="M 0,0 6.729,5.591 C 6.792,6.298 6.703,6.807 6.463,7.113 6.223,7.421 5.772,7.617 5.107,7.705 L 5.169,8.227 11.61,7.469 11.549,6.947 C 10.874,7.026 10.413,7.018 10.166,6.921 9.92,6.825 9.72,6.692 9.567,6.525 9.416,6.356 9.279,5.769 9.16,4.761 L 8.375,-1.92 C 8.26,-2.892 8.247,-3.478 8.336,-3.678 8.425,-3.879 8.579,-4.065 8.799,-4.235 9.02,-4.404 9.482,-4.531 10.188,-4.614 l -0.06,-0.508 -6.699,0.789 0.061,0.507 c 0.835,-0.098 1.412,-0.024 1.728,0.222 0.314,0.247 0.535,0.906 0.661,1.978 L 6.577,4.299 -0.154,-1.306 C -0.226,-2.087 -0.168,-2.638 0.02,-2.957 0.208,-3.277 0.668,-3.484 1.403,-3.58 l -0.06,-0.508 -6.397,0.753 0.061,0.508 c 0.897,-0.106 1.489,-0.025 1.776,0.244 0.287,0.269 0.491,0.92 0.613,1.956 l 0.787,6.68 c 0.116,0.981 0.128,1.567 0.039,1.759 -0.09,0.191 -0.243,0.372 -0.458,0.542 -0.216,0.168 -0.681,0.295 -1.396,0.38 L -3.571,9.256 3.128,8.467 3.066,7.945 C 2.391,8.025 1.93,8.017 1.684,7.92 1.437,7.823 1.236,7.691 1.085,7.523 0.932,7.355 0.797,6.768 0.678,5.759 Z" /></g><g
           transform="translate(322.0244,351.6504)"
           id="g100"><path
             id="path102"
             style="fill:#0066ff;fill-opacity:1;fill-rule:nonzero;stroke:none"
             d="M 0,0 1.023,4.721 C -0.592,4.504 -1.642,4.332 -2.128,4.201 -2.997,3.973 -3.647,3.68 -4.078,3.32 -4.51,2.96 -4.781,2.524 -4.893,2.01 -5.033,1.36 -4.937,0.775 -4.603,0.254 -4.27,-0.266 -3.825,-0.587 -3.27,-0.707 -2.516,-0.871 -1.426,-0.635 0,0 m -0.19,-0.879 c -1.613,-0.68 -2.614,-1.058 -3.004,-1.133 -0.583,-0.11 -1.18,-0.099 -1.785,0.032 -0.942,0.205 -1.655,0.666 -2.137,1.384 -0.484,0.719 -0.621,1.556 -0.414,2.512 0.131,0.604 0.393,1.095 0.787,1.472 0.539,0.525 1.371,0.949 2.495,1.272 1.124,0.322 2.941,0.618 5.45,0.886 L 1.308,6.033 C 1.576,7.269 1.544,8.164 1.212,8.717 0.88,9.27 0.303,9.636 -0.521,9.814 -1.146,9.95 -1.674,9.904 -2.108,9.677 -2.552,9.452 -2.816,9.142 -2.902,8.745 L -3.043,7.954 C -3.133,7.539 -3.318,7.244 -3.6,7.069 -3.883,6.894 -4.212,6.848 -4.589,6.93 -4.957,7.009 -5.23,7.191 -5.412,7.476 c -0.184,0.285 -0.231,0.63 -0.143,1.037 0.168,0.775 0.76,1.392 1.774,1.853 1.012,0.46 2.309,0.519 3.886,0.177 C 1.314,10.281 2.268,9.88 2.961,9.343 3.485,8.937 3.821,8.405 3.97,7.751 4.064,7.324 3.982,6.511 3.723,5.311 L 2.81,1.105 C 2.554,-0.077 2.422,-0.806 2.414,-1.083 2.406,-1.359 2.448,-1.555 2.543,-1.67 2.638,-1.785 2.76,-1.859 2.908,-1.891 3.066,-1.925 3.212,-1.923 3.346,-1.887 3.58,-1.814 4.053,-1.572 4.765,-1.16 L 4.601,-1.917 C 3.196,-3.03 1.989,-3.476 0.976,-3.257 0.49,-3.151 0.137,-2.914 -0.085,-2.545 -0.306,-2.176 -0.341,-1.62 -0.19,-0.879" /></g><g
           transform="translate(341.2646,343.7246)"
           id="g104"><path
             id="path106"
             style="fill:#0066ff;fill-opacity:1;fill-rule:nonzero;stroke:none"
             d="m 0,0 -1.229,-3.835 -0.537,0.171 c 0.301,1.037 0.193,1.972 -0.325,2.801 -0.516,0.829 -1.71,1.544 -3.574,2.141 l -9.048,2.9 0.156,0.487 c 0.861,-0.275 1.457,-0.31 1.79,-0.101 0.333,0.207 0.66,0.809 0.978,1.801 l 2.053,6.406 c 0.3,0.94 0.425,1.513 0.375,1.719 -0.052,0.205 -0.167,0.412 -0.346,0.619 -0.179,0.207 -0.61,0.421 -1.297,0.641 l 0.16,0.501 6.423,-2.059 -0.16,-0.501 c -0.648,0.208 -1.102,0.288 -1.362,0.241 -0.26,-0.048 -0.482,-0.139 -0.663,-0.274 -0.182,-0.136 -0.428,-0.687 -0.739,-1.653 L -9.528,5.19 C -9.773,4.425 -9.843,3.949 -9.738,3.761 -9.634,3.572 -9.176,3.348 -8.362,3.087 l 2.347,-0.752 c 0.899,-0.289 1.436,-0.378 1.61,-0.269 0.172,0.109 0.39,0.573 0.652,1.39 l 2.15,6.709 c 0.268,0.834 0.392,1.388 0.374,1.661 -0.02,0.273 -0.151,0.513 -0.393,0.721 -0.242,0.209 -0.659,0.408 -1.248,0.597 l 0.16,0.501 6.423,-2.059 -0.16,-0.501 C 2.905,11.293 2.452,11.372 2.19,11.325 1.93,11.278 1.709,11.187 1.527,11.051 1.346,10.916 1.1,10.365 0.789,9.398 L -1.199,3.189 C -1.563,2.056 -1.676,1.322 -1.538,0.987 -1.4,0.652 -0.888,0.323 0,0" /></g><g
           transform="translate(347.7803,344.6113)"
           id="g108"><path
             id="path110"
             style="fill:#0066ff;fill-opacity:1;fill-rule:nonzero;stroke:none"
             d="M 0,0 8.075,3.365 C 8.344,4.022 8.408,4.534 8.27,4.897 8.13,5.261 7.756,5.583 7.147,5.862 L 7.358,6.343 13.293,3.725 13.081,3.243 C 12.458,3.518 12.015,3.645 11.752,3.625 11.488,3.605 11.258,3.538 11.063,3.422 10.867,3.307 10.565,2.785 10.156,1.856 L 7.439,-4.298 C 7.044,-5.192 6.859,-5.749 6.886,-5.967 6.911,-6.186 7.004,-6.408 7.165,-6.635 7.325,-6.862 7.73,-7.12 8.381,-7.406 L 8.174,-7.875 2.003,-5.151 2.21,-4.683 c 0.771,-0.34 1.343,-0.439 1.717,-0.296 0.373,0.143 0.778,0.708 1.214,1.696 l 2.41,5.457 -8.083,-3.378 c -0.297,-0.726 -0.404,-1.269 -0.319,-1.629 0.084,-0.36 0.465,-0.694 1.139,-1.001 l -0.207,-0.469 -5.893,2.6 0.208,0.469 c 0.827,-0.365 1.416,-0.461 1.769,-0.289 0.354,0.171 0.741,0.734 1.162,1.689 L 0.043,6.319 C 0.442,7.223 0.626,7.779 0.597,7.989 0.567,8.199 0.474,8.416 0.318,8.642 0.163,8.866 -0.244,9.124 -0.903,9.415 L -0.691,9.896 5.479,7.173 5.267,6.692 C 4.645,6.967 4.201,7.094 3.938,7.074 3.674,7.055 3.444,6.987 3.249,6.871 3.054,6.755 2.751,6.233 2.342,5.305 Z" /></g><g
           transform="translate(369.7324,342.3062)"
           id="g112"><path
             id="path114"
             style="fill:#0066ff;fill-opacity:1;fill-rule:nonzero;stroke:none"
             d="M 0,0 C -0.296,0.283 -0.598,0.511 -0.908,0.686 -1.801,1.189 -2.581,1.364 -3.249,1.21 -3.918,1.058 -4.409,0.704 -4.721,0.149 c -0.399,-0.707 -0.416,-1.471 -0.05,-2.291 0.365,-0.819 1.025,-1.499 1.98,-2.037 0.098,-0.055 0.212,-0.109 0.346,-0.162 z M 4.549,-1.355 4.291,-1.813 C 3.742,-1.504 3.299,-1.345 2.962,-1.335 2.623,-1.325 2.356,-1.401 2.158,-1.565 1.962,-1.73 1.656,-2.178 1.244,-2.909 L -2.057,-8.77 c -0.394,-0.699 -0.618,-1.18 -0.672,-1.44 -0.053,-0.262 0.014,-0.54 0.202,-0.837 0.188,-0.297 0.556,-0.599 1.105,-0.908 l -0.252,-0.447 -5.876,3.311 0.252,0.445 c 0.733,-0.413 1.294,-0.566 1.679,-0.461 0.386,0.106 0.844,0.629 1.373,1.57 l 1.351,2.4 -0.549,0.294 c -0.08,0.045 -0.219,0.129 -0.418,0.251 l -6.686,-2.81 -3.024,1.703 0.251,0.447 c 0.441,-0.249 0.78,-0.369 1.013,-0.357 0.233,0.012 0.754,0.187 1.563,0.526 l 4.891,2.042 c -1.672,1.79 -2.134,3.347 -1.387,4.673 0.421,0.748 1.151,1.192 2.191,1.331 1.039,0.141 2.44,-0.286 4.199,-1.276 z" /></g><g
           transform="translate(400.4316,329.4238)"
           id="g116"><path
             id="path118"
             style="fill:#0066ff;fill-opacity:1;fill-rule:nonzero;stroke:none"
             d="m 0,0 -2.535,-3.605 -0.455,0.356 c 0.39,0.68 0.612,1.209 0.665,1.59 0.082,0.615 -0.004,1.183 -0.259,1.706 -0.255,0.522 -0.718,1.046 -1.389,1.572 l -2.289,1.793 -8.844,-11.287 c -0.712,-0.907 -1.048,-1.558 -1.008,-1.952 0.064,-0.543 0.412,-1.062 1.043,-1.557 l 0.563,-0.441 -0.316,-0.403 -6.891,5.399 0.317,0.403 0.574,-0.45 c 0.687,-0.539 1.322,-0.731 1.906,-0.579 0.358,0.095 0.861,0.556 1.511,1.384 l 8.844,11.287 -1.954,1.531 c -0.759,0.594 -1.338,0.966 -1.737,1.115 -0.522,0.187 -1.087,0.201 -1.689,0.04 -0.604,-0.16 -1.194,-0.553 -1.775,-1.177 l -0.455,0.357 2.906,3.314 z" /></g><g
           transform="translate(396.7432,319.0181)"
           id="g120"><path
             id="path122"
             style="fill:#0066ff;fill-opacity:1;fill-rule:nonzero;stroke:none"
             d="m 0,0 4.677,-4.45 c 0.522,0.624 0.84,1.112 0.951,1.464 0.172,0.549 0.179,1.104 0.018,1.665 C 5.485,-0.761 5.207,-0.292 4.81,0.085 4.199,0.667 3.448,0.97 2.557,0.997 1.665,1.024 0.812,0.692 0,0 m -0.554,-0.581 c -1.304,-1.357 -1.959,-2.773 -1.961,-4.248 -0.002,-1.476 0.494,-2.685 1.485,-3.629 0.663,-0.63 1.395,-1.013 2.199,-1.147 0.804,-0.134 1.753,0.042 2.848,0.529 l 0.151,-0.525 c -1.026,-0.77 -2.269,-1.176 -3.727,-1.222 -1.459,-0.045 -2.747,0.464 -3.864,1.528 -1.213,1.154 -1.843,2.572 -1.889,4.253 -0.047,1.681 0.619,3.247 1.999,4.698 1.495,1.57 3.103,2.374 4.826,2.41 C 3.235,2.102 4.766,1.483 6.104,0.21 7.236,-0.868 7.844,-2.092 7.927,-3.463 8.01,-4.834 7.509,-6.088 6.429,-7.225 Z" /></g><g
           transform="translate(408.2129,308.2217)"
           id="g124"><path
             id="path126"
             style="fill:#0066ff;fill-opacity:1;fill-rule:nonzero;stroke:none"
             d="M 0,0 -3.566,-3.112 C -4.34,-3.785 -4.816,-4.262 -5,-4.543 -5.31,-5.002 -5.436,-5.574 -5.379,-6.257 -5.32,-6.941 -5.016,-7.6 -4.461,-8.235 -3.794,-9 -2.982,-9.383 -2.026,-9.384 c 1.249,-10e-4 2.518,0.559 3.804,1.682 1.46,1.273 2.276,2.605 2.449,3.994 0.115,0.963 -0.122,1.781 -0.708,2.454 C 3.198,-0.887 2.798,-0.596 2.317,-0.383 1.953,-0.217 1.18,-0.089 0,0 M -1.545,5.118 2.468,2.92 2.848,2.484 0.615,0.537 C 1.931,0.728 2.996,0.697 3.81,0.444 4.623,0.191 5.294,-0.237 5.822,-0.841 6.742,-1.896 7.135,-3.104 6.997,-4.463 6.833,-6.128 6.014,-7.603 4.539,-8.889 c -1.646,-1.438 -3.463,-2.107 -5.449,-2.007 -1.63,0.086 -3.013,0.78 -4.147,2.08 -0.493,0.566 -0.847,1.12 -1.062,1.66 -0.162,0.397 -0.254,0.924 -0.275,1.578 l -2.91,-2.538 c -0.654,-0.57 -1.03,-0.977 -1.131,-1.219 -0.101,-0.243 -0.108,-0.519 -0.022,-0.828 0.086,-0.309 0.379,-0.75 0.879,-1.324 l -0.386,-0.336 -4.804,5.508 0.387,0.336 0.249,-0.288 c 0.361,-0.425 0.746,-0.722 1.159,-0.886 0.204,-0.079 0.426,-0.084 0.666,-0.016 0.242,0.068 0.709,0.406 1.405,1.012 l 9.033,7.88 c 0.617,0.54 0.983,0.913 1.098,1.12 0.114,0.206 0.153,0.413 0.12,0.62 -0.033,0.206 -0.151,0.425 -0.351,0.654 -0.159,0.183 -0.412,0.374 -0.756,0.572 z" /></g><g
           transform="translate(415.4316,288.7651)"
           id="g128"><path
             id="path130"
             style="fill:#0066ff;fill-opacity:1;fill-rule:nonzero;stroke:none"
             d="M 0,0 3.92,2.823 C 2.575,3.744 1.679,4.317 1.23,4.545 0.433,4.958 -0.246,5.176 -0.809,5.197 -1.369,5.218 -1.863,5.075 -2.29,4.768 -2.829,4.38 -3.149,3.88 -3.249,3.27 -3.351,2.66 -3.234,2.124 -2.902,1.663 -2.451,1.036 -1.484,0.482 0,0 m -0.729,-0.525 c -1.653,0.573 -2.65,0.962 -2.991,1.167 -0.508,0.31 -0.941,0.716 -1.303,1.219 -0.565,0.783 -0.785,1.602 -0.663,2.459 0.123,0.857 0.58,1.572 1.373,2.143 0.502,0.361 1.025,0.551 1.57,0.568 C -1.99,7.06 -1.09,6.818 -0.038,6.306 1.014,5.793 2.562,4.797 4.605,3.317 L 5.011,3.608 C 6.036,4.346 6.61,5.033 6.734,5.667 6.857,6.3 6.674,6.958 6.182,7.641 5.808,8.161 5.384,8.481 4.909,8.602 4.43,8.732 4.025,8.678 3.696,8.44 L 3.062,7.947 C 2.719,7.699 2.381,7.604 2.056,7.663 1.729,7.722 1.453,7.907 1.228,8.22 1.008,8.525 0.926,8.844 0.981,9.178 1.036,9.512 1.232,9.8 1.569,10.043 2.214,10.506 3.066,10.57 4.127,10.234 5.189,9.897 6.19,9.074 7.134,7.765 7.857,6.759 8.297,5.825 8.453,4.962 8.57,4.309 8.466,3.689 8.138,3.103 7.922,2.722 7.315,2.173 6.32,1.457 L 2.828,-1.059 C 1.847,-1.766 1.261,-2.219 1.069,-2.419 0.878,-2.62 0.779,-2.794 0.773,-2.943 0.767,-3.092 0.808,-3.228 0.896,-3.351 0.99,-3.482 1.101,-3.579 1.224,-3.64 1.445,-3.743 1.959,-3.88 2.765,-4.051 L 2.136,-4.504 c -1.787,0.114 -2.984,0.591 -3.589,1.431 -0.291,0.404 -0.395,0.817 -0.313,1.239 0.083,0.422 0.428,0.858 1.037,1.309" /></g><g
           transform="translate(431.6074,280.0723)"
           id="g132"><path
             id="path134"
             style="fill:#0066ff;fill-opacity:1;fill-rule:nonzero;stroke:none"
             d="m 0,0 -3.051,5.201 -7.592,-4.454 c -0.845,-0.495 -1.319,-0.838 -1.425,-1.031 -0.108,-0.191 -0.162,-0.427 -0.164,-0.705 -0.004,-0.278 0.174,-0.723 0.534,-1.336 l -0.442,-0.259 -3.413,5.817 0.442,0.26 c 0.457,-0.78 0.881,-1.203 1.267,-1.27 0.387,-0.067 1.031,0.163 1.929,0.691 l 5.804,3.402 c 0.85,0.5 1.326,0.844 1.424,1.031 0.099,0.188 0.151,0.418 0.156,0.692 0.006,0.274 -0.174,0.721 -0.539,1.343 L -4.616,9.648 3.117,-3.538 2.664,-3.803 C 2.32,-3.217 2.035,-2.854 1.811,-2.716 1.584,-2.578 1.358,-2.498 1.133,-2.478 0.906,-2.457 0.355,-2.704 -0.52,-3.218 l -5.802,-3.403 c -0.844,-0.495 -1.319,-0.838 -1.426,-1.03 -0.106,-0.192 -0.161,-0.427 -0.164,-0.705 -0.002,-0.278 0.177,-0.724 0.536,-1.337 l -0.441,-0.259 -3.413,5.818 0.441,0.259 c 0.426,-0.727 0.833,-1.142 1.22,-1.244 0.386,-0.103 1.045,0.119 1.975,0.665 z" /></g><g
           transform="translate(433.1738,270.5254)"
           id="g136"><path
             id="path138"
             style="fill:#0066ff;fill-opacity:1;fill-rule:nonzero;stroke:none"
             d="m 0,0 2.716,-5.855 c 0.716,0.387 1.19,0.724 1.423,1.011 0.361,0.448 0.57,0.962 0.628,1.542 0.056,0.58 -0.032,1.118 -0.261,1.615 C 4.15,-0.922 3.563,-0.363 2.744,-0.011 1.924,0.342 1.01,0.345 0,0 m -0.729,-0.338 c -1.711,-0.783 -2.838,-1.86 -3.383,-3.231 -0.544,-1.371 -0.527,-2.678 0.05,-3.921 0.383,-0.829 0.925,-1.453 1.624,-1.873 0.698,-0.42 1.645,-0.605 2.842,-0.553 L 0.352,-10.46 c -1.238,-0.339 -2.541,-0.262 -3.915,0.231 -1.374,0.493 -2.383,1.439 -3.034,2.839 -0.705,1.519 -0.77,3.069 -0.196,4.65 0.574,1.581 1.77,2.792 3.585,3.636 1.968,0.912 3.759,1.069 5.374,0.47 C 3.781,0.768 4.979,-0.37 5.755,-2.046 6.413,-3.464 6.528,-4.826 6.102,-6.132 5.676,-7.437 4.75,-8.42 3.327,-9.081 Z" /></g><g
           transform="translate(437.9668,255.0732)"
           id="g140"><path
             id="path142"
             style="fill:#0066ff;fill-opacity:1;fill-rule:nonzero;stroke:none"
             d="m 0,0 c 0.143,-0.424 0.229,-0.678 0.26,-0.764 0.469,-1.309 1.037,-2.173 1.703,-2.591 0.664,-0.419 1.323,-0.512 1.975,-0.279 0.754,0.272 1.196,0.765 1.322,1.479 0.125,0.714 -0.044,1.72 -0.512,3.019 L 4.48,1.609 Z m -5.55,-1.994 c 0.033,-0.527 0.167,-1.12 0.404,-1.779 0.41,-1.138 0.938,-1.901 1.589,-2.293 0.65,-0.392 1.331,-0.46 2.044,-0.205 0.798,0.288 1.282,0.866 1.451,1.734 0.168,0.87 0.024,1.94 -0.432,3.21 -0.113,0.316 -0.244,0.652 -0.392,1.009 z m 6.769,-2.341 c 0.409,-2.56 -0.18,-4.125 -1.77,-4.696 -1.085,-0.39 -2.076,-0.183 -2.973,0.622 -0.898,0.805 -1.666,2.1 -2.308,3.887 l -2.327,6.477 0.481,0.173 c 0.306,-0.85 0.646,-1.336 1.016,-1.455 0.372,-0.12 1.04,-0.007 2.003,0.339 L 1.673,3.286 C 2.609,3.623 3.144,3.871 3.272,4.031 3.401,4.19 3.495,4.402 3.553,4.665 3.609,4.928 3.519,5.395 3.278,6.062 L 3.772,6.241 5.944,0.194 C 6.363,-0.971 6.62,-1.944 6.714,-2.725 6.809,-3.505 6.695,-4.214 6.376,-4.853 6.055,-5.49 5.549,-5.935 4.854,-6.184 3.498,-6.67 2.287,-6.055 1.219,-4.335" /></g><g
           transform="translate(446.6143,247.4966)"
           id="g144"><path
             id="path146"
             style="fill:#0066ff;fill-opacity:1;fill-rule:nonzero;stroke:none"
             d="m 0,0 3.112,-11.65 -3.159,-1.474 -0.177,0.662 c 0.638,0.296 1.102,0.63 1.394,1.003 0.292,0.372 0.449,0.75 0.471,1.134 0.021,0.384 -0.082,1.003 -0.309,1.856 l -0.314,1.177 -8.504,-2.273 c -0.91,-0.243 -1.471,-0.458 -1.684,-0.646 -0.213,-0.188 -0.322,-0.43 -0.329,-0.726 -0.007,-0.296 0.107,-0.938 0.343,-1.926 l -0.496,-0.132 -1.956,7.326 0.495,0.131 c 0.268,-0.936 0.569,-1.504 0.9,-1.706 0.33,-0.199 1.021,-0.159 2.074,0.121 l 8.504,2.272 -0.322,1.206 c -0.226,0.844 -0.426,1.405 -0.6,1.684 -0.174,0.278 -0.476,0.511 -0.902,0.696 -0.428,0.186 -1.037,0.278 -1.829,0.276 l -0.177,0.663 z" /></g><g
           transform="translate(450.7793,227.4775)"
           id="g148"><path
             id="path150"
             style="fill:#0066ff;fill-opacity:1;fill-rule:nonzero;stroke:none"
             d="m 0,0 c -0.092,0.53 -0.328,1.038 -0.707,1.523 -0.379,0.485 -0.957,0.83 -1.734,1.035 -0.776,0.205 -1.727,0.21 -2.854,0.013 -1.817,-0.316 -3.317,-0.987 -4.496,-2.011 -1.18,-1.025 -1.656,-2.187 -1.431,-3.487 0.169,-0.969 0.672,-1.707 1.509,-2.21 0.836,-0.503 2.142,-0.601 3.914,-0.292 2.219,0.386 3.872,1.215 4.963,2.486 C -0.088,-2.08 0.191,-1.1 0,0 m 0.967,-0.311 c 0.363,-2.08 -0.066,-3.875 -1.282,-5.384 -1.041,-1.284 -2.357,-2.065 -3.948,-2.342 -1.119,-0.194 -2.301,-0.096 -3.549,0.295 -1.25,0.39 -2.253,1.052 -3.015,1.986 -0.762,0.934 -1.254,2.035 -1.475,3.306 -0.361,2.07 0.104,3.845 1.392,5.326 1.084,1.25 2.411,2.012 3.984,2.286 1.146,0.199 2.339,0.085 3.579,-0.343 1.242,-0.428 2.22,-1.105 2.939,-2.031 0.719,-0.926 1.177,-1.959 1.375,-3.099" /></g><g
           transform="translate(447.5586,212.9082)"
           id="g152"><path
             id="path154"
             style="fill:#0066ff;fill-opacity:1;fill-rule:nonzero;stroke:none"
             d="m 0,0 c 0.025,-0.446 0.042,-0.714 0.05,-0.806 0.107,-1.385 0.427,-2.369 0.958,-2.949 0.53,-0.579 1.14,-0.843 1.831,-0.789 0.801,0.063 1.355,0.421 1.666,1.076 0.31,0.655 0.412,1.671 0.305,3.048 L 4.747,0.369 Z m -5.878,-0.457 c -0.107,-0.518 -0.134,-1.125 -0.079,-1.823 0.093,-1.204 0.401,-2.081 0.925,-2.631 0.524,-0.549 1.163,-0.796 1.919,-0.737 0.845,0.066 1.465,0.496 1.855,1.29 0.392,0.794 0.537,1.864 0.432,3.21 -0.027,0.334 -0.063,0.692 -0.111,1.075 z m 5.909,-4.045 c -0.281,-2.578 -1.262,-3.932 -2.946,-4.062 -1.15,-0.09 -2.052,0.372 -2.704,1.385 -0.652,1.013 -1.053,2.466 -1.199,4.358 l -0.534,6.862 0.511,0.039 c 0.07,-0.9 0.268,-1.458 0.595,-1.672 0.326,-0.213 1,-0.281 2.021,-0.202 L 2.481,2.728 C 3.476,2.805 4.055,2.904 4.223,3.023 4.39,3.143 4.535,3.322 4.659,3.562 4.784,3.8 4.82,4.273 4.766,4.982 L 5.288,5.023 5.786,-1.383 C 5.883,-2.618 5.872,-3.624 5.757,-4.401 5.642,-5.179 5.346,-5.833 4.868,-6.364 4.392,-6.895 3.785,-7.188 3.049,-7.246 1.613,-7.357 0.607,-6.442 0.031,-4.502" /></g><g
           transform="translate(134.6494,151.2637)"
           id="g156"><path
             id="path158"
             style="fill:#0066ff;fill-opacity:1;fill-rule:nonzero;stroke:none"
             d="m 0,0 -7.013,-2.421 1.467,-4.25 c 0.381,-1.102 0.788,-1.787 1.222,-2.052 0.572,-0.355 1.373,-0.387 2.404,-0.095 l 0.183,-0.528 -6.175,-2.133 -0.182,0.529 c 0.817,0.43 1.324,0.755 1.523,0.972 0.247,0.277 0.389,0.64 0.429,1.09 0.04,0.45 -0.08,1.079 -0.359,1.887 l -1.467,4.25 -5.848,-2.02 c -0.786,-0.27 -1.249,-0.473 -1.393,-0.608 -0.144,-0.135 -0.234,-0.314 -0.268,-0.539 -0.035,-0.225 0.039,-0.603 0.224,-1.136 l 1.133,-3.28 c 0.377,-1.094 0.721,-1.863 1.03,-2.309 0.311,-0.447 0.75,-0.827 1.318,-1.142 0.744,-0.403 1.767,-0.725 3.072,-0.966 l 0.196,-0.57 -5.023,0.132 -5.147,14.902 0.485,0.167 0.236,-0.685 c 0.157,-0.456 0.407,-0.853 0.749,-1.193 0.244,-0.256 0.525,-0.391 0.842,-0.403 0.316,-0.013 0.907,0.13 1.77,0.427 l 11.526,3.98 c 1.125,0.389 1.776,0.752 1.953,1.09 0.23,0.463 0.209,1.093 -0.069,1.891 L -1.417,5.672 -0.934,5.84 4.213,-9.063 0.4,-10.618 0.209,-10.063 c 0.864,0.522 1.43,0.965 1.693,1.328 0.266,0.363 0.409,0.813 0.428,1.352 -10e-4,0.426 -0.167,1.118 -0.499,2.078 z" /></g><g
           transform="translate(139.5176,126.0859)"
           id="g160"><path
             id="path162"
             style="fill:#0066ff;fill-opacity:1;fill-rule:nonzero;stroke:none"
             d="m 0,0 -6.96,-3.25 c -1.33,-0.621 -2.126,-1.035 -2.392,-1.241 -0.263,-0.207 -0.419,-0.413 -0.466,-0.618 -0.048,-0.205 -0.024,-0.409 0.069,-0.609 0.133,-0.282 0.353,-0.569 0.661,-0.857 l -0.35,-0.397 -3.166,3.084 -0.287,0.616 2.432,1.135 c -1.572,0.576 -2.628,1.082 -3.168,1.518 -0.539,0.436 -0.956,0.969 -1.249,1.598 -0.328,0.702 -0.426,1.397 -0.295,2.085 0.131,0.688 0.443,1.27 0.935,1.744 0.492,0.473 1.273,0.961 2.342,1.46 l 5.129,2.396 c 0.544,0.253 0.89,0.492 1.04,0.718 0.15,0.225 0.222,0.489 0.218,0.793 -0.004,0.304 -0.164,0.78 -0.478,1.432 l 0.464,0.217 2.048,-4.387 -7.687,-3.59 c -1.069,-0.5 -1.677,-1.031 -1.823,-1.593 -0.145,-0.562 -0.083,-1.129 0.185,-1.703 0.183,-0.392 0.503,-0.783 0.961,-1.175 0.458,-0.392 1.164,-0.78 2.118,-1.167 l 6.509,3.039 c 0.653,0.305 1.033,0.641 1.141,1.008 0.108,0.367 -0.02,0.965 -0.386,1.793 l 0.464,0.217 z" /></g><g
           transform="translate(143.3936,119.8398)"
           id="g164"><path
             id="path166"
             style="fill:#0066ff;fill-opacity:1;fill-rule:nonzero;stroke:none"
             d="M 0,0 -2.482,-1.406 C -0.258,-1.475 1.154,-2.039 1.754,-3.098 2.027,-3.578 2.119,-4.053 2.029,-4.52 1.937,-4.988 1.716,-5.321 1.363,-5.521 1.05,-5.699 0.722,-5.736 0.375,-5.631 c -0.346,0.104 -0.607,0.315 -0.786,0.63 -0.175,0.306 -0.231,0.728 -0.169,1.265 0.06,0.538 0.039,0.898 -0.065,1.082 -0.088,0.158 -0.265,0.283 -0.531,0.375 -0.552,0.208 -1.324,0.307 -2.317,0.3 l -5.285,-2.997 c -0.611,-0.345 -1.026,-0.69 -1.244,-1.034 -0.154,-0.236 -0.218,-0.541 -0.2,-0.91 0.019,-0.372 0.183,-0.828 0.491,-1.371 l -0.434,-0.246 -3.489,6.156 0.433,0.246 c 0.347,-0.613 0.694,-1.017 1.038,-1.215 0.252,-0.146 0.544,-0.183 0.875,-0.111 0.162,0.033 0.563,0.232 1.204,0.596 l 4.276,2.424 c 1.284,0.728 2.033,1.189 2.245,1.385 0.213,0.197 0.331,0.402 0.357,0.618 0.026,0.217 -0.025,0.44 -0.155,0.667 -0.153,0.271 -0.388,0.543 -0.701,0.816 l 0.359,0.377 3.41,-2.871 z" /></g><g
           transform="translate(142.2109,102.2207)"
           id="g168"><path
             id="path170"
             style="fill:#0066ff;fill-opacity:1;fill-rule:nonzero;stroke:none"
             d="M 0,0 4.015,2.685 C 2.711,3.64 1.841,4.237 1.402,4.478 0.624,4.912 -0.045,5.148 -0.604,5.187 -1.161,5.226 -1.659,5.099 -2.097,4.807 -2.649,4.437 -2.987,3.95 -3.111,3.348 -3.235,2.744 -3.142,2.209 -2.828,1.74 -2.403,1.104 -1.461,0.525 0,0 m -0.749,-0.499 c -1.624,0.62 -2.602,1.037 -2.934,1.251 -0.494,0.323 -0.911,0.74 -1.252,1.25 -0.53,0.795 -0.718,1.616 -0.563,2.463 0.154,0.847 0.64,1.543 1.452,2.086 0.514,0.345 1.043,0.516 1.586,0.516 C -1.709,7.073 -0.819,6.805 0.208,6.264 1.235,5.723 2.739,4.687 4.717,3.154 L 5.132,3.431 C 6.183,4.133 6.782,4.798 6.93,5.423 7.079,6.048 6.921,6.708 6.457,7.4 6.104,7.929 5.695,8.26 5.228,8.395 4.753,8.537 4.349,8.496 4.012,8.271 L 3.36,7.799 C 3.007,7.564 2.669,7.48 2.346,7.548 2.023,7.617 1.756,7.811 1.543,8.127 1.335,8.438 1.267,8.757 1.335,9.086 c 0.068,0.33 0.274,0.611 0.621,0.842 0.658,0.44 1.512,0.478 2.555,0.111 C 5.555,9.672 6.521,8.824 7.411,7.494 8.091,6.475 8.493,5.533 8.614,4.671 8.707,4.019 8.578,3.405 8.228,2.833 7.998,2.463 7.374,1.936 6.354,1.254 L 2.774,-1.139 C 1.77,-1.811 1.168,-2.242 0.97,-2.436 0.771,-2.629 0.666,-2.799 0.654,-2.945 0.642,-3.094 0.677,-3.229 0.76,-3.355 0.851,-3.488 0.955,-3.588 1.077,-3.653 1.294,-3.762 1.8,-3.914 2.596,-4.107 L 1.951,-4.538 c -1.776,0.168 -2.95,0.678 -3.52,1.53 -0.274,0.41 -0.362,0.823 -0.262,1.24 0.098,0.417 0.459,0.84 1.082,1.269" /></g><g
           transform="translate(159.6533,96.1631)"
           id="g172"><path
             id="path174"
             style="fill:#0066ff;fill-opacity:1;fill-rule:nonzero;stroke:none"
             d="m 0,0 -3.39,-2.675 -0.309,0.391 c 0.828,1.14 1.249,2.096 1.262,2.869 0.014,0.773 -0.266,1.522 -0.839,2.249 C -3.713,3.386 -4.199,3.728 -4.734,3.855 -5.271,3.983 -5.701,3.919 -6.028,3.661 -6.434,3.341 -6.682,2.94 -6.771,2.46 -6.875,1.979 -6.798,1.233 -6.539,0.222 l 0.592,-2.338 c 0.548,-2.169 0.235,-3.717 -0.939,-4.643 -0.905,-0.715 -1.928,-0.917 -3.072,-0.607 -1.143,0.308 -2.079,0.925 -2.809,1.847 -0.522,0.665 -1.011,1.508 -1.467,2.533 -0.133,0.317 -0.266,0.559 -0.396,0.725 -0.143,0.182 -0.349,0.25 -0.618,0.203 l -0.31,0.391 3.553,2.804 0.31,-0.391 c -0.84,-1.021 -1.272,-2.047 -1.293,-3.076 -0.024,-1.029 0.271,-1.932 0.882,-2.706 0.429,-0.545 0.926,-0.873 1.492,-0.985 0.563,-0.112 1.052,-0.005 1.466,0.321 0.5,0.394 0.768,0.918 0.806,1.568 0.038,0.653 -0.133,1.756 -0.514,3.313 -0.382,1.556 -0.503,2.678 -0.364,3.365 0.133,0.682 0.515,1.27 1.145,1.767 0.818,0.646 1.745,0.879 2.778,0.703 1.032,-0.177 1.933,-0.753 2.698,-1.723 0.338,-0.427 0.662,-1.009 0.975,-1.749 0.209,-0.489 0.366,-0.8 0.473,-0.935 0.099,-0.126 0.204,-0.205 0.309,-0.236 0.107,-0.03 0.284,-0.025 0.533,0.018 z" /></g><g
           transform="translate(168.9131,95.6484)"
           id="g176"><path
             id="path178"
             style="fill:#0066ff;fill-opacity:1;fill-rule:nonzero;stroke:none"
             d="M 0,0 C 0.281,-0.314 0.421,-0.673 0.416,-1.076 0.412,-1.479 0.265,-1.81 -0.023,-2.067 c -0.289,-0.259 -0.636,-0.371 -1.039,-0.334 -0.405,0.036 -0.749,0.211 -1.03,0.525 -0.281,0.315 -0.421,0.677 -0.416,1.087 0.005,0.409 0.151,0.743 0.44,1.001 0.289,0.26 0.633,0.369 1.035,0.33 C -0.633,0.503 -0.289,0.322 0,0 m -4.1,-5.357 -7.586,-6.801 c -0.59,-0.53 -0.941,-0.93 -1.052,-1.199 -0.114,-0.268 -0.135,-0.538 -0.067,-0.807 0.068,-0.271 0.321,-0.649 0.758,-1.135 l -0.372,-0.334 -4.482,5 0.372,0.332 c 0.45,-0.502 0.797,-0.799 1.041,-0.89 0.243,-0.092 0.513,-0.097 0.81,-0.014 0.297,0.084 0.737,0.388 1.321,0.911 l 3.637,3.262 c 1.025,0.918 1.657,1.546 1.9,1.885 0.172,0.249 0.252,0.467 0.236,0.659 -0.015,0.187 -0.11,0.381 -0.283,0.574 -0.19,0.211 -0.469,0.419 -0.84,0.627 l 0.229,0.488 3.935,-2.064 z" /></g><g
           transform="translate(165.7129,74.6152)"
           id="g180"><path
             id="path182"
             style="fill:#0066ff;fill-opacity:1;fill-rule:nonzero;stroke:none"
             d="M 0,0 3.369,3.461 C 1.896,4.125 0.919,4.527 0.44,4.67 -0.413,4.935 -1.115,5.026 -1.669,4.947 -2.223,4.869 -2.685,4.641 -3.051,4.264 -3.513,3.788 -3.743,3.242 -3.739,2.627 -3.735,2.012 -3.531,1.506 -3.129,1.113 -2.581,0.581 -1.537,0.209 0,0 m -0.628,-0.645 c -1.719,0.27 -2.763,0.474 -3.131,0.614 -0.549,0.214 -1.044,0.535 -1.484,0.963 -0.685,0.666 -1.039,1.429 -1.065,2.292 -0.023,0.861 0.305,1.641 0.988,2.342 0.43,0.444 0.913,0.721 1.444,0.835 0.732,0.161 1.659,0.085 2.775,-0.231 C 0.018,5.855 1.704,5.154 3.958,4.066 L 4.306,4.424 C 5.188,5.328 5.636,6.103 5.65,6.746 5.666,7.388 5.373,8 4.775,8.582 4.322,9.024 3.852,9.263 3.366,9.298 2.874,9.34 2.485,9.215 2.203,8.924 L 1.665,8.328 C 1.369,8.023 1.055,7.872 0.725,7.871 c -0.329,0 -0.633,0.133 -0.907,0.4 -0.265,0.26 -0.401,0.557 -0.402,0.894 -0.003,0.337 0.142,0.654 0.433,0.952 0.552,0.569 1.377,0.781 2.474,0.641 C 3.422,10.615 4.544,9.986 5.688,8.871 6.568,8.016 7.157,7.178 7.455,6.359 7.681,5.74 7.683,5.115 7.46,4.482 7.312,4.072 6.811,3.427 5.954,2.548 L 2.951,-0.536 C 2.108,-1.402 1.609,-1.95 1.456,-2.18 1.301,-2.411 1.234,-2.6 1.253,-2.746 1.271,-2.893 1.334,-3.02 1.441,-3.124 1.558,-3.236 1.681,-3.312 1.812,-3.35 2.047,-3.411 2.575,-3.453 3.394,-3.479 L 2.853,-4.033 c -1.774,-0.205 -3.027,0.05 -3.762,0.765 -0.354,0.343 -0.526,0.729 -0.515,1.159 0.01,0.426 0.275,0.916 0.796,1.464" /></g><g
           transform="translate(178.5361,73.3643)"
           id="g184"><path
             id="path186"
             style="fill:#0066ff;fill-opacity:1;fill-rule:nonzero;stroke:none"
             d="M 0,0 C 2.387,0.366 4.148,0.085 5.286,-0.844 5.872,-1.32 6.266,-1.864 6.467,-2.476 6.671,-3.087 6.645,-3.802 6.395,-4.62 6.216,-5.188 5.766,-5.917 5.043,-6.804 L 1.624,-11 c -0.507,-0.621 -0.797,-1.088 -0.869,-1.399 -0.059,-0.248 -0.034,-0.5 0.075,-0.756 0.109,-0.256 0.422,-0.594 0.936,-1.014 l -0.314,-0.386 -5.299,4.317 0.316,0.386 0.221,-0.18 c 0.499,-0.406 0.906,-0.621 1.217,-0.645 0.314,-0.021 0.619,0.072 0.918,0.28 0.119,0.082 0.408,0.405 0.869,0.97 l 3.279,4.024 c 0.727,0.894 1.131,1.646 1.206,2.257 0.076,0.61 -0.185,1.161 -0.786,1.65 -0.928,0.757 -2.231,1.044 -3.908,0.864 l -4.223,-5.182 c -0.543,-0.665 -0.836,-1.113 -0.877,-1.339 -0.06,-0.297 -0.033,-0.572 0.078,-0.823 0.112,-0.253 0.462,-0.617 1.045,-1.093 l -0.314,-0.387 -5.298,4.317 0.315,0.387 0.234,-0.191 c 0.546,-0.445 1.017,-0.619 1.416,-0.52 0.398,0.098 0.888,0.505 1.471,1.22 l 2.973,3.649 c 0.962,1.18 1.518,1.923 1.67,2.228 0.15,0.305 0.204,0.554 0.159,0.744 -0.045,0.192 -0.169,0.371 -0.372,0.536 -0.218,0.177 -0.524,0.337 -0.915,0.478 l 0.139,0.529 4.207,-1.43 0.504,-0.408 z" /></g><g
           transform="translate(201.9219,53.3389)"
           id="g188"><path
             id="path190"
             style="fill:#0066ff;fill-opacity:1;fill-rule:nonzero;stroke:none"
             d="M 0,0 0.868,8.294 -6.054,3.573 Z M -0.156,-1.098 -6.978,2.93 -9.679,1.085 c -0.665,-0.454 -1.089,-0.836 -1.271,-1.146 -0.146,-0.246 -0.146,-0.538 0,-0.876 0.143,-0.337 0.625,-0.785 1.441,-1.34 l -0.261,-0.442 -5.546,3.276 0.259,0.44 c 0.808,-0.315 1.375,-0.441 1.704,-0.379 0.666,0.121 1.613,0.608 2.84,1.458 L 3.538,11.718 3.993,11.449 2.187,-5.615 C 2.041,-6.987 2.076,-7.954 2.289,-8.513 2.501,-9.072 2.954,-9.584 3.65,-10.05 l -0.26,-0.439 -6.95,4.103 0.261,0.442 c 0.72,-0.383 1.257,-0.556 1.612,-0.519 0.354,0.037 0.61,0.187 0.764,0.449 0.207,0.349 0.36,1.004 0.46,1.963 z" /></g><g
           transform="translate(221.2998,50.0576)"
           id="g192"><path
             id="path194"
             style="fill:#0066ff;fill-opacity:1;fill-rule:nonzero;stroke:none"
             d="m 0,0 -1.799,-3.925 -0.452,0.207 c 0.217,1.393 0.156,2.436 -0.185,3.129 -0.339,0.694 -0.93,1.235 -1.771,1.62 -0.64,0.292 -1.229,0.374 -1.764,0.244 -0.535,-0.129 -0.889,-0.383 -1.062,-0.761 -0.215,-0.47 -0.254,-0.94 -0.114,-1.41 0.125,-0.473 0.534,-1.103 1.226,-1.886 l 1.593,-1.812 c 1.474,-1.679 1.901,-3.2 1.279,-4.558 -0.481,-1.049 -1.3,-1.697 -2.459,-1.943 -1.157,-0.245 -2.272,-0.123 -3.341,0.367 -0.768,0.352 -1.589,0.879 -2.46,1.584 -0.264,0.223 -0.491,0.377 -0.683,0.465 -0.21,0.097 -0.426,0.064 -0.645,-0.099 l -0.452,0.207 1.886,4.113 0.453,-0.207 c -0.282,-1.291 -0.199,-2.4 0.25,-3.327 0.449,-0.927 1.123,-1.595 2.019,-2.005 0.631,-0.29 1.223,-0.356 1.776,-0.199 0.554,0.158 0.939,0.476 1.16,0.954 0.264,0.579 0.265,1.167 0.003,1.764 -0.264,0.598 -0.919,1.502 -1.969,2.713 -1.049,1.213 -1.667,2.157 -1.855,2.83 -0.193,0.667 -0.121,1.366 0.213,2.096 0.434,0.947 1.152,1.578 2.153,1.891 1,0.313 2.063,0.212 3.187,-0.304 0.495,-0.227 1.049,-0.597 1.665,-1.112 0.408,-0.34 0.691,-0.545 0.845,-0.617 0.148,-0.067 0.275,-0.09 0.384,-0.07 0.109,0.022 0.265,0.108 0.467,0.259 z" /></g><g
           transform="translate(232.459,45.7354)"
           id="g196"><path
             id="path198"
             style="fill:#0066ff;fill-opacity:1;fill-rule:nonzero;stroke:none"
             d="m 0,0 -1.51,-4.047 -0.466,0.175 c 0.116,1.404 -0.021,2.439 -0.41,3.106 -0.39,0.668 -1.019,1.163 -1.885,1.487 -0.66,0.247 -1.252,0.284 -1.778,0.116 -0.523,-0.169 -0.859,-0.447 -1.003,-0.838 -0.181,-0.484 -0.184,-0.955 -0.012,-1.412 0.161,-0.464 0.613,-1.062 1.361,-1.793 l 1.72,-1.69 c 1.594,-1.57 2.129,-3.054 1.607,-4.456 -0.402,-1.081 -1.172,-1.786 -2.31,-2.114 -1.137,-0.33 -2.257,-0.289 -3.36,0.122 -0.791,0.295 -1.647,0.763 -2.568,1.402 -0.28,0.201 -0.518,0.339 -0.715,0.414 -0.218,0.081 -0.429,0.031 -0.635,-0.148 l -0.467,0.174 1.58,4.241 0.467,-0.174 c -0.187,-1.309 -0.023,-2.41 0.493,-3.3 0.515,-0.892 1.235,-1.51 2.16,-1.854 0.649,-0.243 1.244,-0.265 1.786,-0.068 0.539,0.198 0.902,0.542 1.086,1.035 0.222,0.597 0.18,1.184 -0.124,1.761 -0.308,0.577 -1.027,1.43 -2.162,2.563 -1.134,1.131 -1.82,2.027 -2.056,2.688 -0.24,0.649 -0.221,1.352 0.059,2.103 0.365,0.978 1.036,1.658 2.01,2.043 0.975,0.385 2.043,0.36 3.202,-0.07 0.508,-0.191 1.089,-0.521 1.742,-0.989 0.431,-0.309 0.726,-0.494 0.886,-0.553 0.151,-0.057 0.281,-0.071 0.389,-0.042 0.106,0.029 0.256,0.127 0.446,0.293 z" /></g><g
           transform="translate(241.085,42.127)"
           id="g200"><path
             id="path202"
             style="fill:#0066ff;fill-opacity:1;fill-rule:nonzero;stroke:none"
             d="m 0,0 c -0.514,0.145 -1.068,0.148 -1.665,0.014 -0.597,-0.134 -1.152,-0.508 -1.67,-1.119 -0.517,-0.613 -0.93,-1.47 -1.238,-2.572 -0.499,-1.776 -0.544,-3.417 -0.137,-4.921 0.409,-1.505 1.242,-2.432 2.501,-2.787 0.939,-0.262 1.814,-0.126 2.624,0.414 0.81,0.54 1.457,1.676 1.943,3.409 0.609,2.167 0.58,4.016 -0.087,5.545 C 1.821,-0.972 1.065,-0.299 0,0 M 0.692,0.74 C 2.707,0.175 4.127,-0.98 4.953,-2.728 5.653,-4.217 5.784,-5.74 5.349,-7.295 5.041,-8.387 4.445,-9.414 3.56,-10.373 c -0.886,-0.959 -1.91,-1.582 -3.071,-1.869 -1.162,-0.286 -2.358,-0.258 -3.588,0.088 -2.004,0.562 -3.391,1.742 -4.162,3.539 -0.65,1.515 -0.76,3.041 -0.329,4.578 0.316,1.119 0.929,2.146 1.846,3.083 0.915,0.936 1.941,1.53 3.077,1.782 1.136,0.25 2.256,0.222 3.359,-0.088" /></g><g
           transform="translate(260.1592,30.3984)"
           id="g204"><path
             id="path206"
             style="fill:#0066ff;fill-opacity:1;fill-rule:nonzero;stroke:none"
             d="m 0,0 c -0.672,-1.572 -1.624,-2.703 -2.856,-3.388 -1.234,-0.684 -2.498,-0.907 -3.792,-0.665 -1.543,0.288 -2.777,1.133 -3.703,2.535 -0.924,1.403 -1.199,3.116 -0.821,5.138 0.365,1.96 1.298,3.433 2.797,4.42 1.498,0.987 3.139,1.315 4.918,0.983 1.335,-0.25 2.372,-0.778 3.111,-1.586 C 0.394,6.627 0.697,5.873 0.567,5.175 0.504,4.83 0.33,4.573 0.048,4.405 -0.234,4.238 -0.594,4.194 -1.028,4.275 -1.611,4.385 -2.019,4.639 -2.251,5.039 -2.384,5.261 -2.428,5.645 -2.382,6.189 -2.337,6.734 -2.46,7.18 -2.754,7.525 -3.05,7.863 -3.503,8.088 -4.116,8.203 -5.104,8.388 -5.964,8.2 -6.691,7.642 -7.658,6.901 -8.277,5.803 -8.551,4.342 -8.828,2.854 -8.676,1.468 -8.093,0.18 c 0.584,-1.287 1.554,-2.056 2.908,-2.31 0.968,-0.181 1.895,-0.039 2.781,0.425 0.621,0.316 1.291,0.975 2.01,1.976 z" /></g><g
           transform="translate(267.8184,44.4727)"
           id="g208"><path
             id="path210"
             style="fill:#0066ff;fill-opacity:1;fill-rule:nonzero;stroke:none"
             d="M 0,0 C 0.421,-0.049 0.761,-0.227 1.023,-0.531 1.287,-0.836 1.396,-1.181 1.351,-1.565 1.307,-1.95 1.12,-2.264 0.793,-2.504 c -0.326,-0.24 -0.699,-0.337 -1.12,-0.287 -0.419,0.049 -0.763,0.228 -1.029,0.539 -0.268,0.31 -0.379,0.657 -0.334,1.042 0.044,0.385 0.23,0.695 0.557,0.932 C -0.808,-0.044 -0.429,0.049 0,0 M 0.474,-6.73 -0.71,-16.85 c -0.092,-0.787 -0.092,-1.319 0.003,-1.595 0.095,-0.276 0.257,-0.492 0.486,-0.649 0.23,-0.157 0.669,-0.273 1.319,-0.349 l -0.058,-0.494 -6.668,0.78 0.058,0.494 c 0.67,-0.079 1.126,-0.071 1.369,0.02 0.245,0.093 0.45,0.269 0.616,0.528 0.167,0.26 0.297,0.779 0.388,1.558 l 0.567,4.852 c 0.16,1.365 0.219,2.256 0.175,2.669 -0.035,0.302 -0.12,0.518 -0.257,0.651 -0.137,0.131 -0.335,0.213 -0.595,0.243 -0.279,0.033 -0.627,0.003 -1.043,-0.087 l -0.152,0.519 4.316,1.056 z" /></g><g
           transform="translate(279.3662,26.5898)"
           id="g212"><path
             id="path214"
             style="fill:#0066ff;fill-opacity:1;fill-rule:nonzero;stroke:none"
             d="M 0,0 0.232,4.825 C -1.312,4.345 -2.31,4 -2.763,3.791 -3.576,3.424 -4.164,3.027 -4.526,2.601 -4.891,2.175 -5.084,1.699 -5.109,1.174 -5.141,0.511 -4.952,-0.051 -4.541,-0.51 -4.13,-0.968 -3.643,-1.211 -3.081,-1.237 -2.317,-1.273 -1.291,-0.861 0,0 m -0.043,-0.898 c -1.465,-0.937 -2.383,-1.475 -2.752,-1.615 -0.553,-0.204 -1.136,-0.291 -1.749,-0.261 -0.954,0.045 -1.727,0.382 -2.315,1.011 -0.589,0.628 -0.86,1.433 -0.813,2.409 0.029,0.618 0.205,1.144 0.529,1.582 0.443,0.607 1.186,1.163 2.233,1.667 1.046,0.503 2.773,1.095 5.182,1.773 L 0.297,6.166 C 0.357,7.429 0.181,8.306 -0.234,8.796 -0.648,9.287 -1.272,9.553 -2.106,9.594 -2.739,9.623 -3.249,9.491 -3.636,9.196 -4.032,8.9 -4.241,8.551 -4.262,8.145 L -4.269,7.342 C -4.289,6.918 -4.422,6.596 -4.67,6.377 -4.917,6.158 -5.231,6.057 -5.613,6.076 c -0.372,0.018 -0.67,0.153 -0.895,0.403 -0.224,0.251 -0.327,0.584 -0.307,1 0.038,0.792 0.515,1.499 1.43,2.12 0.917,0.621 2.174,0.892 3.771,0.815 C -0.389,10.355 0.608,10.119 1.373,9.703 1.952,9.39 2.367,8.92 2.619,8.3 2.781,7.894 2.833,7.079 2.774,5.853 L 2.567,1.553 C 2.51,0.346 2.498,-0.396 2.535,-0.67 2.572,-0.944 2.646,-1.13 2.759,-1.228 2.868,-1.325 3,-1.378 3.15,-1.385 c 0.161,-0.008 0.303,0.018 0.426,0.076 0.217,0.11 0.641,0.427 1.271,0.952 L 4.809,-1.132 C 3.618,-2.459 2.51,-3.1 1.485,-3.051 c -0.493,0.024 -0.876,0.2 -1.153,0.527 -0.276,0.328 -0.402,0.87 -0.375,1.626" /></g><g
           transform="translate(289.6016,40.6465)"
           id="g216"><path
             id="path218"
             style="fill:#0066ff;fill-opacity:1;fill-rule:nonzero;stroke:none"
             d="M 0,0 0.085,-4.165 3.313,-4.1 3.332,-5.068 0.104,-5.133 0.27,-13.354 c 0.016,-0.82 0.155,-1.372 0.417,-1.652 0.262,-0.281 0.594,-0.417 0.997,-0.408 0.332,0.006 0.651,0.106 0.96,0.303 0.307,0.194 0.544,0.478 0.708,0.851 l 0.587,0.012 c -0.334,-0.911 -0.818,-1.602 -1.452,-2.07 -0.634,-0.471 -1.295,-0.713 -1.977,-0.727 -0.463,-0.01 -0.917,0.1 -1.364,0.326 -0.449,0.226 -0.782,0.556 -1.001,0.99 -0.22,0.434 -0.34,1.108 -0.358,2.022 l -0.172,8.523 -2.187,-0.043 -0.009,0.456 c 0.548,0.214 1.107,0.569 1.677,1.066 0.568,0.495 1.072,1.08 1.51,1.754 0.224,0.354 0.533,1.003 0.927,1.943 z" /></g><g
           transform="translate(297.2373,43.8643)"
           id="g220"><path
             id="path222"
             style="fill:#0066ff;fill-opacity:1;fill-rule:nonzero;stroke:none"
             d="M 0,0 C 0.421,0.03 0.789,-0.079 1.105,-0.329 1.422,-0.579 1.594,-0.897 1.621,-1.284 1.65,-1.67 1.525,-2.013 1.25,-2.31 0.974,-2.607 0.625,-2.771 0.203,-2.802 c -0.421,-0.031 -0.791,0.08 -1.113,0.335 -0.32,0.255 -0.494,0.575 -0.524,0.961 -0.027,0.387 0.096,0.726 0.372,1.02 C -0.785,-0.192 -0.432,-0.03 0,0 m 1.73,-6.521 0.74,-10.16 c 0.057,-0.793 0.157,-1.314 0.302,-1.568 0.145,-0.253 0.344,-0.435 0.599,-0.545 0.256,-0.112 0.71,-0.143 1.361,-0.096 l 0.037,-0.498 -6.696,-0.486 -0.036,0.496 c 0.672,0.05 1.118,0.143 1.341,0.279 0.222,0.136 0.39,0.348 0.506,0.633 0.115,0.287 0.144,0.82 0.087,1.603 l -0.354,4.873 c -0.1,1.371 -0.211,2.256 -0.329,2.655 -0.092,0.289 -0.218,0.485 -0.375,0.59 -0.16,0.103 -0.37,0.146 -0.631,0.127 -0.281,-0.02 -0.616,-0.113 -1.008,-0.281 l -0.247,0.482 4.04,1.848 z" /></g><g
           transform="translate(309.0742,37.5811)"
           id="g224"><path
             id="path226"
             style="fill:#0066ff;fill-opacity:1;fill-rule:nonzero;stroke:none"
             d="m 0,0 c -0.527,-0.077 -1.036,-0.298 -1.526,-0.665 -0.491,-0.365 -0.847,-0.932 -1.07,-1.702 -0.223,-0.771 -0.251,-1.72 -0.085,-2.852 0.268,-1.827 0.894,-3.344 1.879,-4.552 0.985,-1.207 2.124,-1.715 3.418,-1.527 0.966,0.142 1.709,0.624 2.228,1.447 0.52,0.822 0.649,2.122 0.389,3.903 -0.327,2.227 -1.107,3.904 -2.339,5.03 C 2.059,-0.146 1.095,0.161 0,0 m 0.331,0.958 c 2.07,0.304 3.838,-0.174 5.305,-1.433 1.244,-1.076 1.984,-2.413 2.218,-4.01 0.165,-1.123 0.038,-2.304 -0.38,-3.54 -0.419,-1.236 -1.1,-2.223 -2.044,-2.958 -0.945,-0.735 -2.048,-1.196 -3.313,-1.38 -2.059,-0.302 -3.807,0.212 -5.242,1.54 -1.211,1.119 -1.933,2.468 -2.164,4.047 -0.168,1.15 -0.025,2.339 0.431,3.568 0.455,1.227 1.15,2.187 2.086,2.879 0.935,0.691 1.97,1.121 3.103,1.287" /></g><g
           transform="translate(322.5117,38.2725)"
           id="g228"><path
             id="path230"
             style="fill:#0066ff;fill-opacity:1;fill-rule:nonzero;stroke:none"
             d="M 0,0 C 1.184,2.102 2.493,3.315 3.925,3.64 4.66,3.806 5.332,3.78 5.938,3.563 6.543,3.345 7.091,2.884 7.58,2.183 7.918,1.69 8.213,0.887 8.466,-0.229 l 1.192,-5.279 c 0.178,-0.782 0.366,-1.298 0.568,-1.546 0.158,-0.201 0.373,-0.337 0.641,-0.409 0.269,-0.071 0.727,-0.034 1.374,0.112 l 0.11,-0.486 -6.665,-1.508 -0.112,0.488 0.28,0.063 c 0.628,0.141 1.047,0.328 1.258,0.561 0.21,0.232 0.326,0.529 0.347,0.894 0.01,0.145 -0.066,0.57 -0.228,1.282 L 6.087,-0.994 C 5.833,0.131 5.487,0.911 5.054,1.348 4.62,1.784 4.025,1.918 3.271,1.746 2.103,1.482 1.072,0.634 0.179,-0.798 l 1.474,-6.519 c 0.191,-0.838 0.361,-1.343 0.514,-1.517 0.196,-0.229 0.428,-0.378 0.697,-0.445 0.267,-0.068 0.768,-0.018 1.504,0.148 l 0.111,-0.485 -6.667,-1.508 -0.109,0.486 0.294,0.067 c 0.687,0.156 1.114,0.42 1.281,0.794 0.169,0.374 0.152,1.01 -0.051,1.91 l -1.039,4.59 c -0.335,1.485 -0.577,2.381 -0.724,2.689 -0.148,0.308 -0.309,0.502 -0.488,0.585 -0.178,0.082 -0.394,0.095 -0.65,0.037 -0.274,-0.062 -0.589,-0.203 -0.939,-0.426 l -0.331,0.436 3.718,2.432 0.633,0.142 z" /></g><g
           transform="translate(346.251,47.4043)"
           id="g232"><path
             id="path234"
             style="fill:#0066ff;fill-opacity:1;fill-rule:nonzero;stroke:none"
             d="m 0,0 c -0.496,-0.197 -0.94,-0.529 -1.334,-0.997 -0.393,-0.468 -0.609,-1.103 -0.649,-1.902 -0.041,-0.8 0.149,-1.732 0.571,-2.795 0.681,-1.716 1.638,-3.05 2.873,-3.999 1.236,-0.95 2.462,-1.184 3.678,-0.702 0.907,0.36 1.519,0.999 1.837,1.918 0.316,0.919 0.143,2.216 -0.519,3.889 C 5.629,-2.495 4.486,-1.043 3.027,-0.23 2.037,0.331 1.028,0.407 0,0 m 0.104,1.009 c 1.944,0.77 3.775,0.71 5.49,-0.178 1.459,-0.762 2.486,-1.893 3.08,-3.395 0.419,-1.055 0.565,-2.233 0.442,-3.532 -0.125,-1.3 -0.561,-2.416 -1.311,-3.347 -0.751,-0.932 -1.72,-1.634 -2.907,-2.106 -1.936,-0.765 -3.754,-0.667 -5.456,0.297 -1.435,0.811 -2.448,1.959 -3.035,3.443 -0.428,1.08 -0.561,2.271 -0.4,3.571 0.161,1.3 0.618,2.393 1.37,3.281 0.751,0.889 1.66,1.543 2.727,1.966" /></g><g
           transform="translate(359.7646,52.8975)"
           id="g236"><path
             id="path238"
             style="fill:#0066ff;fill-opacity:1;fill-rule:nonzero;stroke:none"
             d="m 0,0 3.666,-7.481 c 0.52,-1.062 0.976,-1.67 1.366,-1.829 0.513,-0.201 1.05,-0.164 1.61,0.111 l 1.125,0.552 0.219,-0.448 -7.411,-3.632 -0.22,0.448 0.556,0.271 c 0.361,0.177 0.651,0.421 0.867,0.734 0.216,0.312 0.312,0.635 0.288,0.973 -0.026,0.337 -0.237,0.911 -0.634,1.724 l -3.667,7.482 -2.411,-1.182 -0.44,0.895 2.412,1.182 -0.366,0.746 c -0.556,1.136 -0.827,2.193 -0.815,3.176 0.011,0.981 0.306,1.914 0.886,2.8 0.58,0.885 1.381,1.578 2.401,2.079 C 0.381,9.064 1.39,9.21 2.46,9.036 3.167,8.92 3.635,8.63 3.862,8.166 3.983,7.917 3.98,7.625 3.854,7.291 3.727,6.956 3.527,6.722 3.257,6.59 3.049,6.488 2.796,6.449 2.499,6.473 2.201,6.497 1.774,6.653 1.22,6.94 0.664,7.228 0.207,7.382 -0.149,7.402 -0.506,7.423 -0.857,7.35 -1.2,7.181 -1.616,6.977 -1.918,6.704 -2.107,6.358 -2.297,6.013 -2.351,5.597 -2.269,5.108 -2.186,4.619 -1.709,3.489 -0.841,1.716 l 0.404,-0.82 3.196,1.566 0.438,-0.895 z" /></g><g
           transform="translate(380.6357,73.8096)"
           id="g240"><path
             id="path242"
             style="fill:#0066ff;fill-opacity:1;fill-rule:nonzero;stroke:none"
             d="M 0,0 2.633,-3.534 2.156,-3.853 c -0.522,0.583 -0.955,0.959 -1.299,1.129 -0.556,0.273 -1.121,0.37 -1.692,0.294 -0.57,-0.077 -1.208,-0.35 -1.911,-0.819 L -5.142,-4.85 2.821,-16.774 c 0.642,-0.959 1.154,-1.483 1.538,-1.57 0.533,-0.11 1.13,0.056 1.791,0.497 l 0.589,0.394 0.284,-0.426 -7.212,-4.817 -0.286,0.425 0.603,0.403 c 0.72,0.48 1.097,1.02 1.13,1.621 0.02,0.368 -0.261,0.988 -0.845,1.864 l -7.965,11.925 -2.044,-1.366 c -0.795,-0.53 -1.323,-0.961 -1.587,-1.292 -0.337,-0.436 -0.522,-0.965 -0.554,-1.586 -0.034,-0.621 0.157,-1.305 0.569,-2.049 l -0.476,-0.319 -2.244,3.796 z" /></g><g
           transform="translate(384.1494,77.9473)"
           id="g244"><path
             id="path246"
             style="fill:#0066ff;fill-opacity:1;fill-rule:nonzero;stroke:none"
             d="m 0,0 5.93,-7.129 c 0.138,1.579 0.358,2.699 0.657,3.362 0.299,0.663 0.699,1.204 1.202,1.621 0.603,0.503 1.248,0.781 1.935,0.835 0.687,0.056 1.406,-0.156 2.158,-0.634 0.523,-0.333 1.288,-1.102 2.291,-2.308 L 17.041,-7.7 c 0.513,-0.617 0.918,-0.995 1.214,-1.132 0.22,-0.106 0.464,-0.132 0.731,-0.076 0.268,0.054 0.65,0.288 1.145,0.7 l 0.318,-0.384 -5.219,-4.341 -0.319,0.383 0.243,0.203 c 0.495,0.411 0.784,0.767 0.861,1.066 0.078,0.299 0.045,0.616 -0.103,0.949 -0.07,0.134 -0.338,0.477 -0.798,1.029 l -2.868,3.449 C 11.362,-4.79 10.721,-4.141 10.324,-3.906 9.927,-3.674 9.527,-3.583 9.126,-3.635 8.724,-3.688 8.338,-3.867 7.966,-4.176 7.588,-4.491 7.27,-4.911 7.014,-5.437 6.758,-5.961 6.575,-6.743 6.47,-7.779 l 4.284,-5.151 c 0.554,-0.667 0.94,-1.048 1.157,-1.142 0.217,-0.097 0.482,-0.108 0.793,-0.035 0.313,0.074 0.737,0.336 1.28,0.786 l 0.318,-0.383 -5.265,-4.38 -0.32,0.383 c 0.471,0.392 0.787,0.768 0.946,1.129 0.096,0.199 0.108,0.437 0.034,0.713 -0.072,0.275 -0.361,0.718 -0.87,1.328 L 1.49,-5.709 c -0.926,1.114 -1.524,1.774 -1.795,1.982 -0.269,0.207 -0.503,0.307 -0.7,0.299 C -1.201,-3.436 -1.4,-3.523 -1.601,-3.689 -1.764,-3.824 -1.98,-4.1 -2.248,-4.516 l -0.473,0.238 2.188,3.835 z" /></g><g
           transform="translate(401.7354,78.7451)"
           id="g248"><path
             id="path250"
             style="fill:#0066ff;fill-opacity:1;fill-rule:nonzero;stroke:none"
             d="M 0,0 4.534,4.511 C 3.928,5.051 3.448,5.383 3.101,5.504 2.558,5.693 2.005,5.717 1.443,5.575 0.883,5.435 0.409,5.171 0.025,4.788 -0.567,4.2 -0.887,3.462 -0.934,2.575 -0.982,1.688 -0.671,0.83 0,0 m 0.565,-0.569 c 1.321,-1.342 2.715,-2.037 4.184,-2.087 1.468,-0.05 2.682,0.404 3.645,1.361 0.642,0.639 1.039,1.355 1.19,2.15 0.152,0.796 -10e-4,1.747 -0.46,2.851 L 9.65,3.84 C 10.392,2.794 10.769,1.545 10.78,0.094 10.792,-1.36 10.256,-2.625 9.172,-3.702 7.995,-4.874 6.569,-5.454 4.896,-5.447 c -1.674,0.007 -3.217,0.721 -4.63,2.14 -1.528,1.538 -2.291,3.164 -2.287,4.879 0.003,1.715 0.654,3.218 1.952,4.509 1.098,1.092 2.331,1.657 3.698,1.695 1.366,0.039 2.602,-0.499 3.707,-1.611 z" /></g><g
           transform="translate(409.2568,92.9541)"
           id="g252"><path
             id="path254"
             style="fill:#0066ff;fill-opacity:1;fill-rule:nonzero;stroke:none"
             d="M 0,0 2.151,-1.869 C 1.475,0.249 1.537,1.769 2.335,2.688 2.697,3.105 3.114,3.35 3.586,3.42 4.056,3.49 4.444,3.394 4.751,3.127 5.022,2.891 5.167,2.592 5.183,2.231 5.199,1.87 5.09,1.554 4.852,1.28 4.621,1.015 4.242,0.821 3.715,0.7 3.188,0.577 2.854,0.437 2.716,0.278 2.598,0.142 2.539,-0.067 2.54,-0.348 2.528,-0.937 2.691,-1.698 3.029,-2.633 l 4.586,-3.984 c 0.531,-0.46 0.993,-0.736 1.391,-0.829 0.273,-0.064 0.582,-0.026 0.925,0.116 0.342,0.142 0.719,0.448 1.129,0.919 l 0.376,-0.326 -4.641,-5.342 -0.377,0.327 c 0.463,0.531 0.728,0.992 0.799,1.384 0.054,0.287 -0.008,0.573 -0.186,0.861 -0.086,0.141 -0.406,0.453 -0.965,0.938 l -3.708,3.222 c -1.115,0.968 -1.799,1.521 -2.054,1.655 -0.255,0.136 -0.491,0.18 -0.703,0.13 -0.213,-0.046 -0.406,-0.169 -0.577,-0.367 -0.205,-0.235 -0.383,-0.546 -0.536,-0.932 l -0.474,0.212 1.57,4.171 z" /></g><g
           transform="translate(426.2627,97.7012)"
           id="g256"><path
             id="path258"
             style="fill:#0066ff;fill-opacity:1;fill-rule:nonzero;stroke:none"
             d="M 0,0 -3.867,2.895 C -4.334,1.348 -4.608,0.327 -4.688,-0.166 -4.84,-1.045 -4.841,-1.755 -4.691,-2.293 c 0.15,-0.54 0.434,-0.967 0.855,-1.282 0.531,-0.398 1.104,-0.556 1.713,-0.472 0.611,0.082 1.084,0.351 1.422,0.801 C -0.242,-2.635 -0.009,-1.553 0,0 M 0.72,-0.54 C 0.674,-2.279 0.607,-3.34 0.516,-3.724 0.375,-4.297 0.12,-4.828 -0.248,-5.319 -0.82,-6.085 -1.532,-6.534 -2.383,-6.67 c -0.851,-0.136 -1.668,0.09 -2.451,0.677 -0.494,0.37 -0.832,0.811 -1.014,1.324 -0.255,0.706 -0.298,1.634 -0.13,2.782 0.169,1.149 0.648,2.912 1.436,5.287 L -4.94,3.699 C -5.953,4.457 -6.779,4.802 -7.418,4.734 -8.057,4.665 -8.626,4.297 -9.127,3.629 -9.507,3.122 -9.682,2.626 -9.654,2.14 -9.633,1.646 -9.458,1.277 -9.134,1.033 l 0.661,-0.456 c 0.339,-0.255 0.532,-0.547 0.575,-0.874 0.043,-0.327 -0.051,-0.644 -0.28,-0.95 -0.223,-0.297 -0.502,-0.47 -0.835,-0.515 -0.334,-0.045 -0.668,0.057 -1,0.306 -0.633,0.476 -0.954,1.267 -0.954,2.374 -0.002,1.106 0.477,2.3 1.436,3.579 0.736,0.982 1.49,1.675 2.263,2.075 0.584,0.304 1.205,0.386 1.862,0.246 0.426,-0.092 1.131,-0.507 2.112,-1.243 L 0.152,2.995 C 1.119,2.271 1.728,1.847 1.975,1.725 2.223,1.602 2.419,1.559 2.563,1.596 2.704,1.633 2.822,1.712 2.912,1.832 3.009,1.961 3.066,2.093 3.089,2.229 3.119,2.47 3.093,2.998 3.012,3.813 L 3.633,3.348 C 4.063,1.617 3.973,0.341 3.357,-0.48 3.063,-0.876 2.702,-1.096 2.275,-1.141 1.851,-1.186 1.331,-0.986 0.72,-0.54" /></g><g
           transform="translate(426.7178,109.7969)"
           id="g260"><path
             id="path262"
             style="fill:#0066ff;fill-opacity:1;fill-rule:nonzero;stroke:none"
             d="m 0,0 4.023,-2.493 c 0.872,-0.54 1.468,-0.857 1.79,-0.949 0.529,-0.163 1.111,-0.118 1.745,0.133 0.633,0.253 1.171,0.734 1.61,1.444 0.53,0.854 0.653,1.736 0.37,2.645 C 9.167,1.97 8.257,3.012 6.805,3.912 5.158,4.934 3.648,5.324 2.274,5.087 1.323,4.919 0.613,4.459 0.148,3.707 -0.106,3.296 -0.264,2.832 -0.325,2.313 -0.375,1.918 -0.266,1.146 0,0 m -4.413,-2.944 0.899,4.448 0.302,0.487 2.519,-1.56 C -1.267,1.625 -1.554,2.646 -1.555,3.494 -1.558,4.34 -1.349,5.102 -0.93,5.777 -0.198,6.957 0.834,7.678 2.169,7.938 3.802,8.264 5.451,7.91 7.113,6.881 8.973,5.729 10.149,4.193 10.645,2.277 11.047,0.703 10.798,-0.812 9.898,-2.266 9.506,-2.896 9.084,-3.393 8.633,-3.752 8.305,-4.022 7.831,-4.261 7.212,-4.47 l 3.282,-2.034 c 0.737,-0.457 1.236,-0.698 1.498,-0.724 0.26,-0.025 0.525,0.047 0.794,0.218 0.269,0.172 0.602,0.576 0.999,1.219 l 0.436,-0.271 -3.815,-6.155 -0.435,0.27 0.198,0.32 c 0.3,0.466 0.466,0.918 0.501,1.358 0.014,0.216 -0.048,0.428 -0.184,0.638 -0.136,0.209 -0.597,0.556 -1.382,1.043 l -10.188,6.314 c -0.697,0.432 -1.162,0.672 -1.393,0.721 -0.23,0.048 -0.439,0.027 -0.626,-0.064 -0.186,-0.092 -0.359,-0.266 -0.518,-0.522 -0.127,-0.206 -0.234,-0.501 -0.32,-0.884 z" /></g><g
           transform="translate(431.5977,125.9697)"
           id="g264"><path
             id="path266"
             style="fill:#0066ff;fill-opacity:1;fill-rule:nonzero;stroke:none"
             d="m 0,0 9.025,-4.724 c 0.704,-0.368 1.202,-0.556 1.492,-0.567 0.291,-0.011 0.55,0.062 0.78,0.222 0.228,0.158 0.494,0.526 0.798,1.106 l 0.441,-0.231 -3.113,-5.949 -0.443,0.232 c 0.314,0.597 0.47,1.025 0.471,1.286 10e-4,0.261 -0.089,0.516 -0.27,0.765 -0.184,0.248 -0.623,0.553 -1.317,0.918 l -4.329,2.265 c -1.219,0.638 -2.028,1.011 -2.43,1.119 -0.293,0.075 -0.527,0.072 -0.699,-0.008 -0.173,-0.08 -0.32,-0.237 -0.44,-0.468 -0.131,-0.25 -0.228,-0.585 -0.293,-1.006 l -0.539,0.045 0.558,4.408 z m -6.455,1.966 c 0.196,0.373 0.483,0.629 0.863,0.765 0.377,0.137 0.739,0.116 1.082,-0.064 0.344,-0.18 0.57,-0.465 0.677,-0.855 0.107,-0.392 0.064,-0.775 -0.133,-1.149 -0.195,-0.374 -0.486,-0.631 -0.87,-0.769 -0.386,-0.14 -0.75,-0.12 -1.094,0.06 -0.342,0.18 -0.567,0.465 -0.671,0.853 -0.103,0.389 -0.055,0.776 0.146,1.159" /></g><g
           transform="translate(436.9766,137.4521)"
           id="g268"><path
             id="path270"
             style="fill:#0066ff;fill-opacity:1;fill-rule:nonzero;stroke:none"
             d="M 0,0 3.942,-1.762 3.74,-2.216 c -1.394,0.203 -2.437,0.133 -3.128,-0.215 -0.689,-0.347 -1.224,-0.943 -1.601,-1.788 -0.287,-0.642 -0.364,-1.231 -0.228,-1.764 0.134,-0.535 0.393,-0.887 0.771,-1.056 0.472,-0.211 0.942,-0.244 1.411,-0.101 0.472,0.13 1.097,0.545 1.875,1.244 l 1.795,1.612 c 1.667,1.49 3.182,1.931 4.548,1.322 1.052,-0.471 1.708,-1.283 1.964,-2.438 0.258,-1.156 0.147,-2.272 -0.334,-3.346 -0.345,-0.772 -0.864,-1.597 -1.56,-2.476 C 9.032,-11.486 8.88,-11.716 8.794,-11.908 8.699,-12.12 8.736,-12.335 8.9,-12.552 l -0.202,-0.455 -4.133,1.847 0.204,0.455 c 1.294,-0.271 2.402,-0.177 3.325,0.282 0.921,0.459 1.584,1.137 1.986,2.038 0.282,0.634 0.343,1.226 0.18,1.778 -0.163,0.551 -0.484,0.935 -0.964,1.15 -0.582,0.26 -1.17,0.254 -1.765,-0.015 C 6.936,-5.739 6.038,-6.404 4.837,-7.465 3.635,-8.525 2.698,-9.152 2.024,-9.349 1.359,-9.547 0.661,-9.482 -0.071,-9.155 c -0.952,0.425 -1.59,1.136 -1.913,2.134 -0.322,0.999 -0.231,2.061 0.274,3.191 0.221,0.496 0.586,1.054 1.096,1.675 0.336,0.412 0.538,0.695 0.608,0.852 0.066,0.147 0.087,0.275 0.065,0.383 -0.022,0.11 -0.11,0.265 -0.262,0.464 z" /></g><g
           transform="translate(435.9658,145.3594)"
           id="g272"><path
             id="path274"
             style="fill:#0066ff;fill-opacity:1;fill-rule:nonzero;stroke:none"
             d="M 0,0 3.902,-1.458 5.031,1.566 5.939,1.227 4.809,-1.798 12.51,-4.676 c 0.769,-0.287 1.334,-0.36 1.691,-0.22 0.359,0.14 0.607,0.399 0.746,0.775 0.117,0.31 0.142,0.645 0.074,1.004 -0.068,0.358 -0.246,0.682 -0.531,0.971 l 0.205,0.552 c 0.725,-0.647 1.188,-1.351 1.391,-2.114 0.201,-0.764 0.184,-1.465 -0.056,-2.105 -0.162,-0.433 -0.43,-0.816 -0.806,-1.149 -0.375,-0.333 -0.805,-0.52 -1.29,-0.565 -0.485,-0.044 -1.155,0.093 -2.01,0.414 l -7.986,2.984 -0.765,-2.05 -0.429,0.16 c 0.004,0.589 -0.121,1.24 -0.371,1.952 -0.252,0.712 -0.61,1.395 -1.073,2.051 -0.248,0.34 -0.736,0.866 -1.465,1.579 z" /></g><g
           transform="translate(443.6904,156.8096)"
           id="g276"><path
             id="path278"
             style="fill:#0066ff;fill-opacity:1;fill-rule:nonzero;stroke:none"
             d="M 0,0 4.131,-1.255 3.987,-1.731 C 2.578,-1.703 1.554,-1.905 0.911,-2.335 0.27,-2.765 -0.187,-3.423 -0.455,-4.308 -0.66,-4.981 -0.662,-5.575 -0.462,-6.089 c 0.201,-0.512 0.501,-0.829 0.898,-0.95 0.495,-0.149 0.965,-0.125 1.412,0.075 0.453,0.189 1.021,0.679 1.705,1.469 l 1.581,1.822 c 1.468,1.688 2.917,2.315 4.346,1.879 1.105,-0.335 1.856,-1.06 2.254,-2.174 0.399,-1.115 0.427,-2.235 0.084,-3.361 -0.244,-0.809 -0.657,-1.692 -1.238,-2.65 -0.184,-0.292 -0.309,-0.538 -0.37,-0.74 -0.067,-0.222 -0.005,-0.43 0.186,-0.625 l -0.144,-0.476 -4.33,1.317 0.144,0.476 c 1.319,-0.107 2.406,0.125 3.264,0.695 0.858,0.569 1.431,1.326 1.717,2.269 0.202,0.664 0.187,1.26 -0.043,1.787 -0.231,0.527 -0.597,0.868 -1.101,1.02 C 9.295,-4.07 8.712,-4.148 8.154,-4.489 7.598,-4.829 6.789,-5.601 5.73,-6.804 4.67,-8.005 3.819,-8.745 3.175,-9.022 2.541,-9.303 1.838,-9.326 1.07,-9.093 c -0.997,0.304 -1.718,0.93 -2.162,1.881 -0.444,0.948 -0.487,2.016 -0.128,3.199 0.158,0.52 0.452,1.118 0.88,1.798 0.281,0.451 0.447,0.758 0.497,0.921 0.047,0.154 0.052,0.284 0.018,0.39 -0.036,0.105 -0.143,0.248 -0.319,0.427 z" /></g><g
           transform="translate(128.498,181.4121)"
           id="g280"><path
             id="path282"
             style="fill:#0066ff;fill-opacity:1;fill-rule:nonzero;stroke:none"
             d="m 0,0 c 0,3.864 -3.133,6.998 -6.998,6.998 -3.865,0 -6.998,-3.134 -6.998,-6.998 0,-3.865 3.133,-6.998 6.998,-6.998 C -3.133,-6.998 0,-3.865 0,0" /></g><g
           transform="translate(457.998,181.4121)"
           id="g284"><path
             id="path286"
             style="fill:#0066ff;fill-opacity:1;fill-rule:nonzero;stroke:none"
             d="m 0,0 c 0,3.864 -3.133,6.998 -6.998,6.998 -3.865,0 -6.998,-3.134 -6.998,-6.998 0,-3.865 3.133,-6.998 6.998,-6.998 C -3.133,-6.998 0,-3.865 0,0" /></g><g
           transform="translate(307.3506,144.3047)"
           id="g288"><path
             id="path290"
             style="fill:#0f0a99;fill-opacity:1;fill-rule:evenodd;stroke:none"
             d="m 0,0 -1.001,5.001 3.5,2.75 0.251,-9.101 z m -149.25,97.049 0.35,-3.3 -5.6,-1.35 1.774,4.284 4.226,4.669 1,-2.003 z m 83.75,-16.751 -0.2,-4.4 6.6,-8.35 -0.95,-5.1 6.05,-2.2 2.25,0.15 -0.45,4.25 -2.75,3 3.6,0.45 -1.55,3 -2.6,-0.6 -4.35,6.4 3.2,0.1 -1.6,4.2 z m 19.7,-6.55 2.75,0.25 0.7,3.1 -2.45,3.15 -4.3,-2.15 z m -96.9,27.351 4.95,-5.647 1,-2.003 -3.1,-2.6 -6.85,-1.65 -1.001,2.003 4.851,5.497 -3.15,3.05 1,2.4 3.75,4.453 1,-2.003 z m 67.6,26.45 -1.001,2.003 4.557,6.546 9.993,2.104 -0.449,-3.603 -6.5,-0.5 -3.4,-4.45 3.75,-4.4 z M 72.402,20.402 l 2.151,-2.5 -1.2,-4.35 -0.75,3.85 -2.5,0.85 0.899,7.8 2.801,-2.1 z M 43.45,-10.3 l -5.5,3.7 -4.899,10 -0.652,4.287 10.05,-12.986 z M 48.699,-5.699 60,-3.7 62.5,-4.75 62.101,-1.3 66.449,2.751 67.45,-2.25 65.5,-4.149 66.301,-10.2 62.4,-20.149 54.351,-18.55 49.7,-10.7 Z M 25.801,-1.7 24.8,3.301 l 16.1,-14.2 4.049,-2.499 1.001,-5.001 -1.75,-5.601 -5.5,4.101 -5.5,9.349 z m 38.842,40.144 3.056,4.908 0.402,-12.151 -3.351,2.85 z m 21.006,34.658 3.702,-7.891 5.449,1.241 1.001,-4.004 -3.5,-3.349 -14.7,-5.048 -1.001,4 7.7,5.2 z m 4.75,5.1 0.952,-8.503 -3.451,3.55 -3.651,7.553 z m -7.799,6.549 1.001,-5.003 -2.023,0.687 -0.428,-3.937 -1.549,5.25 -9.401,13.35 -1.001,5.004 z m -60.95,10.547 -1.95,2.75 -0.5,0.2 0.25,-4.2 -3,-5.05 h 2.101 l 2.3,2.3 z m 29.55,28.2 6.2,0.55 8,-3 h 23.75 l 9.35,-6.4 4.85,0.754 1.001,-5.004 -4.25,-1.45 -2.401,-2.9 -4.149,-0.3 -3.551,-1.6 0.9,-2.2 6.15,-2.046 1.001,-5.004 h -1.95 l 1.2,-5.85 -11.401,9.15 -1.001,5.004 0.152,6.346 -1.7,-2.7 -6.351,1.55 -0.75,-1.4 0.75,-3 -6.6,1.75 -8.5,-1.75 -3.549,-9.55 H 68 l 7.301,-10.65 -1.25,-11 H 69.4 l -0.75,-7.1 3.95,-3.246 1.001,-5.003 -3.5,-0.8 -6.05,7.849 -7.301,3.55 -5.449,-4.55 7.449,-3.25 5.3,-8.197 L 65.051,47.05 62.95,39 56.95,31.2 50.2,29.55 45.851,31.2 41.4,24.55 48.601,18.101 50.15,10.8 43.851,5.55 38.15,14.101 H 35.301 L 33.051,5.55 32.05,10.551 32,15.75 23.601,18.851 16.9,33.65 14.5,31.3 10.4,31.7 9.7,28.351 -0.649,18.05 V 7.7 l -3.75,-3.8 -8.3,16.5 -2.801,10.6 -2,-1.2 -8.55,7.6 -15.95,0.9 -1.267,0.099 -1.933,0.651 -8.9,6.6 h -4.85 l 7.85,-9.549 12.649,0.501 1.001,-5.001 -9.3,-10.851 -17.65,-8.95 -1,5.001 -0.35,4.8 -6.5,8.199 -8.35,14.9 -4.15,2.05 -1,5.001 6.9,3.048 -1.75,5.899 -4.15,-1.3 h -7 l -4.85,7.55 -1.001,5.004 25.451,-0.704 -8.35,4.55 -0.15,4.6 -4.75,-1.3 2.1,-2.75 -3,-0.6 -2.15,1.5 1.55,2.35 -5.15,-0.45 -1.7,-5.363 -3.851,-1.833 -4.949,-4.854 0.9,-6.7 h -2.95 l -3.15,9.65 -8.4,7.7 -4,-0.95 8.299,-5.196 1.001,-5.004 h -1.55 l -1.15,-4.65 -1.2,5.45 -9.75,8.05 -3.75,-3.2 -4.6,1.55 -1.6,-4 -4.6,-1.2 v -3.45 l -3.95,-4.95 h -9.15 l -2.95,5.75 -1.001,5.004 14.351,3.846 5.55,12.2 11.7,8.65 6.25,-2.75 7.55,1 2.15,3.5 v 3.6 h 3.9 l -3.9,2.3 4.7,1.3 4.9,-0.15 -0.9,1.3 H -109 l -1.8,2.95 4.45,5.1 -2.4,1.75 -4.75,-3.6 -2.2,-2.55 2.999,1.353 1.001,-5.003 -3.6,-3 v -4.55 l -4.65,-1.7 v 2.75 l -4.55,4.55 -5.5,-2.4 -1.8,7.3 8.55,2.9 5.55,7.7 6.9,4.1 24.696,0.64 0.404,-1.989 -0.95,-2.2 -5.55,-0.45 -7.2,2.15 7.65,-9.801 11.1,6.85 8.4,1 10.2,2.5 10.9,-2.5 -4.3,4.25 1.2,2.55 h 3.15 l 6.2,-6.8 -2.6,6.05 3.45,1.2 10.55,-4.85 -6.45,6.55 h 5.2 v 2.45 l 14.65,2.8 12.8,-2.15 -2.75,-2.45 25.95,-1.75 7.5,-3.9 10.35,3.05 z" /></g><g
           transform="translate(306.3496,149.3057)"
           id="g292"><path
             id="path294"
             style="fill:#0f77e6;fill-opacity:1;fill-rule:evenodd;stroke:none"
             d="M 0,0 0.4,6.7 3.5,2.75 2.75,-1.35 Z m -149.25,94.051 0.351,-3.301 -5.601,-1.349 1.95,2.3 -1.65,2.049 6.7,2.601 z m 83.75,-13.75 -0.2,-4.4 6.6,-8.35 -0.95,-5.1 6.05,-2.201 2.25,0.151 -0.45,4.25 -2.75,3 3.6,0.45 -1.549,3 -2.601,-0.601 -4.35,6.401 3.201,0.099 -1.601,4.201 z m 19.7,-6.551 2.75,0.25 0.7,3.101 -2.45,3.149 -4.3,-2.149 z m -96.9,24.351 2.65,-5.05 3.3,-2.6 -3.1,-2.6 -6.85,-1.65 1.2,5.85 2.65,1.65 -3.15,3.049 1,2.401 -2.7,2.55 7.45,-0.1 z m 67.6,26.45 0.55,4.5 4.151,3.35 9.849,0.8 -1.45,-1.6 -6.5,-0.5 -3.399,-4.45 3.75,-4.401 z M 72.402,20.402 l 2.151,-2.5 -1.2,-4.35 -0.75,3.85 -2.5,0.85 0.899,7.8 2.801,-2.1 z M 43.45,-10.3 37.95,-6.6 33.051,3.4 40.65,-2.149 40.45,-5.8 Z M 54.95,-9.399 60,-3.7 62.5,-4.75 62.101,-1.3 65.5,0 67.45,-2.25 65.5,-4.149 66.301,-10.2 62.4,-20.149 54.351,-18.55 49.7,-10.7 Z m -29.149,7.699 5.3,-1.25 9.799,-7.949 1.951,-6.551 3.099,-0.949 -1.75,-5.601 -5.5,4.101 -5.5,9.349 z M 66.051,36.95 68.7,38.351 68.101,30.2 64.75,33.05 Z m 20.599,31.151 0.951,-5.75 8.2,-0.9 -3.5,-3.35 -14.7,-5.051 7.7,5.2 L 83,64.551 Z m 4.75,5.1 -0.049,-5.5 -3.451,3.549 -2.65,4.551 z m -11.7,12.2 3.901,-5.651 -2.651,0.901 0.2,-4.151 -1.549,5.25 -9.401,13.351 11.3,-8.95 z m -58.05,9.9 -1.95,2.75 -0.5,0.199 0.25,-4.199 -3,-5.051 h 2.101 l 2.3,2.301 z m 29.55,28.199 6.2,0.551 8,-3 h 23.75 l 9.35,-6.4 -2.149,-1.35 8,-2.9 -4.25,-1.45 -2.401,-2.9 -4.149,-0.301 -3.551,-1.599 0.9,-2.2 5.201,-3.05 -0.101,-2.3 2.051,-1.7 h -1.95 l 1.2,-5.85 -11.401,9.15 0.8,8.799 -1.649,2.551 -1.7,-2.7 L 77,108.401 76.25,107 77,104 70.4,105.75 61.9,104 58.351,94.451 H 68 l 7.301,-10.65 -1.25,-11 H 69.4 l -0.75,-7.1 4.951,-8.25 -3.5,-0.8 L 64.051,64.5 56.75,68.051 51.301,63.5 58.75,60.25 65.051,47.05 62.95,39 56.95,31.2 50.2,29.55 45.851,31.2 41.4,24.55 48.601,18.101 50.15,10.8 43.851,5.55 38.15,14.101 H 35.301 L 33.051,5.55 32,15.75 23.601,18.851 16.9,33.65 14.5,31.3 10.4,31.7 9.7,28.351 -0.649,18.05 V 7.7 l -3.75,-3.8 -8.3,16.5 -2.801,10.6 -2,-1.2 -8.55,7.6 -15.95,0.9 -1.149,3.15 -2.051,-2.4 -8.9,6.6 h -4.85 l 7.85,-9.549 6.85,1.349 6.8,-5.849 -9.3,-10.851 -17.649,-8.95 -1.351,9.801 -6.5,8.199 -8.35,14.9 -4.15,2.05 4.15,2.601 1.75,5.449 -1.75,5.901 -4.15,-1.3 h -7 l -4.85,7.55 5.25,2.5 16.201,-1.55 3,3.349 -8.351,4.551 -0.149,4.6 -4.75,-1.3 2.099,-2.75 -3,-0.601 -2.15,1.5 1.551,2.351 -5.151,-0.45 -3.599,-4.85 3.199,-4.2 -10.1,-3 0.901,-6.7 h -2.951 l -3.15,9.65 -8.399,7.699 -4,-0.949 6.599,-8.5 2.7,-1.7 h -1.549 l -1.151,-4.65 -1.2,5.45 -9.75,8.05 -3.75,-3.201 -4.6,1.551 -1.6,-4 -4.6,-1.2 v -3.45 l -3.95,-4.95 h -9.149 l -2.951,5.75 2.3,7.299 11.05,1.551 5.55,12.199 11.7,8.651 6.25,-2.75 7.55,1 2.15,3.5 V 101 h 3.901 l -3.901,2.301 4.7,1.3 4.9,-0.15 -0.9,1.299 H -109 l -1.8,2.951 4.45,5.1 -2.4,1.75 -4.75,-3.6 -2.2,-2.55 -0.449,-3.651 h 4.449 l -3.6,-3 v -4.549 l -4.65,-1.701 v 2.75 l -4.55,4.551 -5.5,-2.4 -1.8,7.3 8.55,2.9 5.55,7.7 6.9,4.1 8.2,-0.35 16.9,-4 -0.949,-2.2 -5.551,-0.45 -7.199,2.15 7.649,-6.801 11.101,6.851 8.399,1 10.2,2.5 10.901,-2.5 -4.301,4.25 1.2,2.55 h 3.15 l 6.201,-6.8 -2.601,6.05 3.45,1.2 10.55,-4.851 -6.45,6.551 h 5.2 V 131 l 14.65,2.801 12.8,-2.15 -2.75,-2.45 25.95,-1.75 7.5,-3.9 10.35,3.05 z" /></g><g
           transform="translate(386.0498,98.9502)"
           id="g296"><path
             id="path298"
             style="fill:none;stroke:#0066ff;stroke-width:1.41700006;stroke-linecap:butt;stroke-linejoin:miter;stroke-miterlimit:10;stroke-dasharray:none;stroke-opacity:1"
             d="m 0,0 c -27.633,-27.667 -60.983,-41.5 -100.05,-41.5 -39.1,0 -72.467,13.833 -100.1,41.5 -27.633,27.6 -41.45,60.95 -41.45,100.05 0,39.067 13.817,72.433 41.45,100.1 27.633,27.633 61,41.45 100.1,41.45 39.067,0 72.417,-13.817 100.05,-41.45 C 27.634,172.483 41.45,139.117 41.45,100.05 41.45,60.95 27.634,27.6 0,0 Z" /></g></g></g></g></svg>